<svg width="208" height="33" viewBox="0 0 208 33" fill="none" xmlns="http://www.w3.org/2000/svg">
<path d="M17.2325 6.78686C17.8865 5.65653 19.0937 4.96044 20.3999 4.96044H33.1407L30.2759 0H20.3492C17.3013 0 14.4846 1.62421 12.9586 4.26168L7.98725 12.8536L10.8521 17.814L17.2325 6.78686Z" fill="#0085FF"/>
<path d="M20.5468 6.91942H26.2765L31.2437 15.5118C32.7718 18.1552 32.7712 21.4134 31.242 24.0562L26.2765 32.6381H20.5468L26.9197 21.6238C27.5778 20.4865 27.5748 19.0841 26.9149 17.9479C25.5889 15.6646 24.2704 13.3768 22.9521 11.0891L22.9505 11.0864L22.9491 11.084L22.9441 11.0753C22.1456 9.68966 21.347 8.30402 20.5468 6.91942Z" fill="#0085FF"/>
<path d="M12.4037 20.7582C11.0961 20.7582 9.88794 20.0607 9.23443 18.9285L2.86486 7.89316L0 12.8536L4.96136 21.4492C6.48625 24.091 9.30542 25.7187 12.3565 25.7187H22.2771L25.142 20.7582H12.4037Z" fill="#0085FF"/>
<path d="M205.482 5.88429H208V25.7686H204.457V13.6626L198.894 22.5813H196.756L191.105 13.5456L191.164 25.7686H187.621V5.88429H190.139L197.81 18.2535L205.482 5.88429Z" fill="#868F99"/>
<path d="M181.651 5.88429H185.985L180.375 13.767C179.439 15.0819 179.451 16.8475 180.406 18.1489L185.985 25.7551H181.651L177.253 19.8005C175.566 17.516 175.543 14.4063 177.198 12.098L181.651 5.88429Z" fill="#868F99"/>
<path d="M169.371 5.88429H165.037L170.647 13.767C171.583 15.0819 171.571 16.8475 170.616 18.1489L165.037 25.7551H169.371L173.769 19.8005C175.456 17.516 175.479 14.4063 173.824 12.098L169.371 5.88429Z" fill="#868F99"/>
<path d="M156.587 22.858C154.623 22.858 153.011 22.214 151.722 20.8968C150.432 19.5796 149.787 17.9112 149.787 15.8622C149.787 13.8133 150.432 12.1448 151.722 10.8276C153.011 9.51044 154.623 8.86649 156.587 8.86649C159.723 8.86649 161.863 10.5935 162.654 13.6376H166.289C165.82 11.1496 164.706 9.21774 162.947 7.72492C161.218 6.26138 159.078 5.50034 156.587 5.50034C153.685 5.50034 151.223 6.49555 149.201 8.45669C147.208 10.4178 146.211 12.9059 146.211 15.8622C146.211 18.8186 147.208 21.3066 149.201 23.2678C151.223 25.2289 153.685 26.2241 156.587 26.2241C159.078 26.2241 161.218 25.4923 162.947 24.0288C164.706 22.536 165.82 20.5748 166.289 18.0868H162.654C161.863 21.131 159.723 22.858 156.587 22.858Z" fill="#868F99"/>
<path d="M143.823 17.7685V25.7694H140.616V17.7685C140.603 14.9553 138.423 12.8614 135.958 12.8614C133.589 12.8614 131.484 14.7941 131.311 17.4406V25.7694H128.053V10.0399H131.311L131.309 11.5977C131.477 11.3901 131.883 10.9533 132.631 10.5338C133.647 9.98012 134.776 9.651 135.958 9.651C140.293 9.651 143.809 13.283 143.823 17.7685Z" fill="white"/>
<path fill-rule="evenodd" clip-rule="evenodd" d="M118.216 26.1576C122.766 26.1576 126.455 22.4636 126.455 17.9068C126.455 13.35 122.766 9.65602 118.216 9.65602C113.666 9.65602 109.978 13.35 109.978 17.9068C109.978 22.4636 113.666 26.1576 118.216 26.1576ZM123.277 17.9068C123.277 20.7059 121.011 22.975 118.216 22.975C115.421 22.975 113.156 20.7059 113.156 17.9068C113.156 15.1077 115.421 12.8386 118.216 12.8386C121.011 12.8386 123.277 15.1077 123.277 17.9068Z" fill="white"/>
<path d="M106.787 7.95535C106.198 7.95535 105.704 7.75552 105.305 7.35584C104.906 6.95617 104.706 6.46134 104.706 5.87135C104.706 5.28135 104.906 4.78652 105.305 4.38685C105.704 3.98718 106.198 3.78734 106.787 3.78734C107.357 3.78734 107.842 3.98718 108.241 4.38685C108.64 4.78652 108.839 5.28135 108.839 5.87135C108.839 6.46134 108.64 6.95617 108.241 7.35584C107.842 7.75552 107.357 7.95535 106.787 7.95535Z" fill="white"/>
<path d="M108.383 25.7694V10.0394H105.134V25.7694H108.383Z" fill="white"/>
<path d="M99.3158 25.7654V12.6941H103.136V10.0391H99.3158V6.12803H96.0376V10.0391H93.5558V12.6941H96.0376V25.7654H99.3158Z" fill="white"/>
<path fill-rule="evenodd" clip-rule="evenodd" d="M48.9447 26.1575C54.6422 26.1575 59.2609 21.532 59.2609 15.8261C59.2609 10.1202 54.6422 5.4947 48.9447 5.4947C43.2472 5.4947 38.6285 10.1202 38.6285 15.8261C38.6285 21.532 43.2472 26.1575 48.9447 26.1575ZM56.0821 15.8261C56.0821 19.7738 52.8866 22.974 48.9447 22.974C45.0028 22.974 41.8073 19.7738 41.8073 15.8261C41.8073 11.8784 45.0028 8.67818 48.9447 8.67818C52.8866 8.67818 56.0821 11.8784 56.0821 15.8261Z" fill="white"/>
<path d="M71.6327 10.0392L67.1843 22.8526C67.1843 22.8526 64.2117 14.2851 62.7387 10.0392H59.261L65.2187 25.7692H69.0956L75.0819 10.0392H71.6327Z" fill="white"/>
<path fill-rule="evenodd" clip-rule="evenodd" d="M91.5453 17.9044V25.7693H88.7174L88.7183 24.0028C87.2354 25.5909 85.1797 26.1527 83.3182 26.1527C78.7695 26.1527 75.082 22.4597 75.082 17.9044C75.082 13.349 78.7695 9.65607 83.3182 9.65607C85.3488 9.65607 87.206 10.392 88.6399 11.6121L88.6376 10.044H91.5442V17.7663C91.5449 17.8123 91.5453 17.8583 91.5453 17.9044ZM83.3181 23.1327C86.2014 23.1327 88.5388 20.7919 88.5388 17.9044C88.5388 15.0168 86.2014 12.676 83.3181 12.676C80.4348 12.676 78.0975 15.0168 78.0975 17.9044C78.0975 20.7919 80.4348 23.1327 83.3181 23.1327Z" fill="white"/>
</svg>
