<?xml version="1.0" standalone="no"?>
<!DOCTYPE svg PUBLIC "-//W3C//DTD SVG 20010904//EN"
 "http://www.w3.org/TR/2001/REC-SVG-20010904/DTD/svg10.dtd">
<svg version="1.0" xmlns="http://www.w3.org/2000/svg"
 width="1855.000000pt" height="1855.000000pt" viewBox="0 0 1855.000000 1855.000000"
 preserveAspectRatio="xMidYMid meet">
<metadata>
Created by potrace 1.14, written by Peter Selinger 2001-2017
</metadata>
<g transform="translate(0.000000,1855.000000) scale(0.100000,-0.100000)"
fill="#000000" stroke="none">
<path d="M4560 13520 c0 -5 -24 -10 -54 -10 -30 0 -58 -4 -61 -10 -3 -5 -19
-10 -35 -10 -16 0 -46 -9 -66 -21 -30 -17 -46 -19 -91 -13 -40 5 -57 3 -63 -6
-6 -9 -29 -13 -74 -11 -45 1 -66 -2 -66 -10 0 -8 -24 -9 -90 -4 -74 6 -94 4
-108 -8 -14 -12 -34 -13 -107 -7 -67 5 -92 4 -97 -5 -5 -8 -31 -10 -88 -7 -60
3 -80 1 -80 -8 0 -10 -16 -11 -64 -7 -49 5 -67 3 -76 -8 -9 -10 -24 -13 -56
-8 -32 4 -49 2 -62 -9 -14 -12 -35 -13 -127 -6 -76 7 -115 6 -127 -1 -10 -6
-38 -11 -62 -11 -29 0 -46 -5 -49 -14 -4 -11 -20 -13 -66 -9 -42 4 -65 2 -76
-7 -11 -9 -34 -11 -79 -6 -50 5 -65 3 -69 -8 -4 -11 -20 -13 -71 -9 -42 4 -71
2 -79 -6 -11 -8 -55 -8 -172 0 -141 10 -159 9 -167 -5 -7 -12 -19 -14 -54 -9
-36 5 -47 2 -58 -12 -8 -12 -19 -16 -31 -11 -10 4 -22 1 -29 -8 -8 -11 -24
-12 -64 -7 -39 6 -55 4 -64 -6 -8 -10 -30 -12 -84 -8 -42 3 -74 1 -74 -4 0
-12 -99 -19 -129 -9 -17 6 -29 4 -41 -7 -11 -10 -32 -14 -70 -11 -35 2 -62 -1
-73 -9 -11 -8 -26 -11 -34 -8 -8 3 -19 0 -23 -8 -7 -10 -28 -13 -80 -11 -45 2
-77 -1 -86 -9 -9 -7 -36 -10 -74 -7 -45 3 -61 1 -65 -10 -4 -10 -15 -12 -41
-7 -19 3 -41 2 -47 -3 -17 -13 -111 -20 -157 -12 -29 5 -40 4 -44 -6 -3 -8
-15 -14 -26 -14 -11 0 -30 -10 -41 -21 -17 -17 -30 -20 -59 -16 -29 4 -40 1
-44 -10 -5 -11 -15 -14 -40 -9 -23 5 -37 2 -46 -9 -7 -8 -17 -12 -22 -9 -5 3
-18 -2 -28 -11 -12 -11 -26 -14 -39 -10 -12 3 -21 2 -21 -3 0 -6 -17 -20 -38
-32 -20 -12 -41 -28 -45 -36 -4 -8 -13 -14 -18 -14 -19 0 -68 -60 -89 -107
-26 -59 -26 -97 1 -115 17 -11 22 -26 26 -73 15 -225 15 -222 -1 -238 -9 -8
-16 -20 -16 -25 0 -6 -11 -32 -24 -59 -13 -26 -27 -68 -31 -92 -7 -41 -5 -47
19 -66 19 -15 28 -34 33 -70 3 -27 12 -56 20 -63 10 -11 12 -33 8 -88 -6 -66
-4 -75 14 -91 12 -9 21 -26 21 -37 0 -11 11 -38 25 -62 18 -31 23 -50 19 -73
-4 -17 -2 -37 3 -43 18 -24 45 -103 49 -146 3 -28 -2 -54 -13 -75 -10 -20 -16
-53 -16 -86 1 -45 6 -59 31 -85 26 -27 30 -38 30 -91 0 -43 6 -72 21 -98 25
-45 26 -60 6 -77 -18 -15 -13 -49 15 -97 11 -19 20 -51 20 -71 1 -111 9 -204
20 -217 7 -9 10 -28 6 -47 -3 -18 -8 -112 -11 -209 -5 -165 -4 -178 15 -202
24 -30 26 -81 5 -121 -18 -33 -20 -72 -4 -81 6 -4 9 -41 8 -96 -2 -74 0 -91
16 -109 20 -22 23 -53 28 -285 1 -66 6 -128 11 -138 6 -12 3 -24 -7 -35 -23
-27 -24 -168 0 -194 16 -18 18 -43 19 -252 0 -236 3 -258 45 -351 11 -25 20
-77 23 -135 7 -118 7 -121 31 -156 33 -49 46 -114 29 -146 -13 -25 -12 -32 7
-72 11 -25 22 -62 23 -83 3 -45 44 -136 83 -180 27 -32 30 -32 128 -37 112 -6
266 -7 430 -3 87 3 119 8 155 24 25 12 64 24 87 28 23 4 47 13 54 21 15 18 53
18 71 0 9 -8 51 -16 114 -21 l100 -7 43 36 c24 20 51 36 60 35 9 -1 27 2 40 8
29 12 66 6 82 -13 6 -8 17 -14 24 -14 7 0 18 -7 26 -16 19 -23 84 -54 113 -54
16 0 30 -8 37 -21 10 -19 17 -21 64 -15 70 8 80 12 95 42 8 13 22 24 34 24 12
0 32 9 46 20 14 11 30 20 36 20 6 0 21 11 34 25 13 14 31 25 40 25 9 0 47 29
84 65 37 36 71 63 76 60 4 -3 13 2 20 10 7 8 21 15 31 15 10 0 21 5 24 10 3 6
14 10 24 10 10 0 35 16 55 35 21 19 44 35 53 35 8 0 61 43 118 95 56 52 109
95 118 95 8 0 41 25 73 55 32 30 65 55 74 55 23 0 290 265 290 287 0 6 11 19
25 29 14 10 25 24 25 31 0 15 51 64 61 58 4 -3 29 14 56 38 54 47 86 67 108
67 8 0 30 16 49 35 20 19 43 35 51 35 32 0 84 50 91 88 4 21 11 42 16 48 5 7
12 58 15 114 3 58 11 107 18 114 7 6 16 46 19 89 7 65 5 79 -9 94 -13 13 -16
26 -10 57 18 107 18 107 -1 121 -18 12 -19 30 -19 227 0 150 -3 217 -12 226
-8 8 -9 22 -2 44 5 21 5 36 -1 42 -6 6 -10 16 -10 24 0 8 -7 20 -15 26 -13 9
-14 28 -7 116 6 85 4 110 -8 133 -14 24 -13 30 3 58 22 40 22 60 -4 88 -20 22
-21 30 -16 119 4 53 11 100 17 106 5 5 10 20 10 32 0 12 7 27 15 34 17 14 21
70 5 70 -16 0 -12 86 5 100 8 7 15 18 15 25 0 7 11 20 25 29 17 11 25 26 25
46 0 17 -4 30 -10 30 -16 0 -12 50 5 56 17 7 22 99 5 109 -5 3 -10 26 -10 51
0 24 -4 44 -10 44 -5 0 -10 9 -10 19 0 11 -4 23 -10 26 -15 9 -12 41 5 55 12
10 15 36 15 115 0 79 3 105 15 115 8 7 15 17 15 23 0 6 7 18 16 28 15 17 14
21 -22 63 -22 25 -45 45 -52 46 -7 0 -18 5 -25 10 -7 6 -24 19 -39 31 -18 13
-28 30 -28 47 0 37 -70 112 -105 112 -14 0 -25 5 -25 10 0 6 -12 10 -26 10
-18 0 -38 13 -63 40 -30 33 -43 40 -72 40 -20 0 -42 7 -49 15 -7 8 -21 15 -31
15 -11 0 -27 4 -37 9 -9 5 -29 14 -44 20 -16 6 -28 17 -28 26 0 8 -8 15 -18
15 -10 0 -27 7 -38 15 -10 8 -29 15 -40 15 -12 0 -27 7 -34 15 -7 8 -27 15
-45 15 -18 0 -38 6 -44 14 -8 9 -55 15 -170 20 -149 7 -162 6 -202 -13 -23
-12 -53 -21 -65 -21 -13 0 -26 -4 -29 -10 -3 -5 -24 -10 -45 -10 -22 0 -55 -9
-75 -20 -20 -11 -42 -20 -49 -20 -7 0 -21 -9 -30 -19 -10 -11 -26 -21 -36 -23
-28 -5 -148 -110 -152 -133 -2 -12 -11 -20 -22 -20 -10 0 -22 -9 -26 -20 -9
-24 -85 -95 -101 -95 -6 0 -35 -21 -65 -46 -42 -37 -54 -53 -54 -76 0 -16 -6
-31 -15 -34 -8 -4 -15 -12 -15 -19 0 -6 -9 -20 -20 -30 -12 -11 -28 -35 -36
-54 -9 -20 -26 -58 -39 -86 -13 -27 -31 -77 -41 -110 -9 -33 -23 -69 -30 -81
-16 -27 -21 -133 -8 -157 6 -11 9 -41 6 -68 -3 -31 -1 -49 6 -49 12 0 21 -137
21 -301 -1 -101 1 -108 25 -132 14 -14 28 -38 31 -54 3 -15 23 -62 44 -103 37
-72 67 -100 131 -126 8 -3 23 -10 32 -15 10 -5 23 -9 30 -9 6 0 33 -18 59 -40
27 -23 58 -40 72 -40 14 0 30 -7 37 -15 7 -8 18 -15 25 -15 7 0 18 -7 25 -15
7 -8 27 -15 44 -15 18 0 36 -4 42 -9 5 -5 109 -15 232 -22 l222 -12 23 21 c17
16 36 22 70 22 26 0 56 4 67 10 11 6 29 15 40 20 11 6 34 10 52 10 18 0 44 9
58 20 14 11 30 20 37 20 6 0 39 25 71 55 33 30 66 55 74 55 8 0 23 9 33 20 14
15 29 20 54 18 36 -3 36 -3 36 -53 1 -27 6 -59 12 -69 6 -11 8 -45 5 -82 -3
-43 -1 -69 8 -79 10 -12 10 -18 -1 -31 -10 -13 -10 -17 1 -24 9 -5 11 -18 6
-40 -4 -21 -1 -39 6 -48 9 -10 12 -44 9 -109 -2 -57 1 -99 8 -106 13 -16 0
-282 -16 -312 -5 -11 -17 -35 -27 -54 -12 -24 -14 -37 -6 -45 16 -16 12 -99
-6 -125 -14 -19 -15 -33 -6 -93 9 -59 8 -75 -4 -92 -8 -11 -14 -29 -14 -39 0
-26 -38 -95 -71 -131 -16 -17 -29 -39 -29 -49 0 -23 -24 -70 -44 -86 -9 -8
-16 -20 -16 -28 0 -18 -50 -62 -71 -63 -8 0 -26 -11 -39 -25 -13 -14 -31 -25
-40 -25 -9 0 -25 -9 -35 -20 -10 -11 -25 -20 -34 -20 -22 0 -71 -50 -71 -73 0
-15 -5 -18 -24 -15 -15 3 -27 0 -30 -8 -3 -8 -14 -14 -24 -14 -10 0 -36 -18
-57 -40 -21 -22 -47 -40 -57 -40 -9 0 -46 -27 -81 -60 -36 -33 -72 -60 -81
-60 -9 0 -21 -9 -28 -20 -7 -11 -22 -20 -33 -20 -11 0 -46 -25 -77 -55 -56
-54 -57 -54 -107 -49 -40 3 -53 1 -57 -11 -3 -8 -14 -15 -24 -15 -9 0 -25 -9
-35 -20 -10 -11 -26 -20 -35 -20 -9 0 -31 -11 -50 -25 -19 -14 -40 -25 -47
-25 -7 0 -17 -9 -23 -20 -6 -11 -20 -20 -30 -20 -11 0 -29 -9 -41 -21 -11 -11
-27 -18 -35 -15 -7 3 -17 0 -21 -7 -11 -17 -77 -39 -97 -31 -10 4 -18 0 -22
-10 -3 -9 -15 -16 -25 -16 -10 0 -19 -5 -19 -11 0 -7 -13 -8 -39 -4 -30 5 -40
3 -44 -9 -4 -9 -17 -16 -30 -16 -13 0 -27 -4 -33 -9 -15 -14 -386 8 -398 24
-8 10 -47 14 -144 17 -115 3 -135 5 -143 21 -13 22 -47 22 -71 1 -16 -16 -18
-16 -24 0 -4 9 -17 16 -34 16 -15 0 -30 6 -33 14 -4 9 -25 13 -67 14 -58 1
-65 3 -90 34 -26 31 -28 37 -23 101 5 57 3 70 -13 88 -16 18 -19 37 -19 135 0
79 -4 117 -12 122 -9 6 -10 30 -3 101 9 79 8 96 -5 105 -12 9 -13 31 -3 153
10 124 9 145 -4 160 -12 15 -13 34 -8 98 5 46 4 85 -2 92 -5 7 -5 14 2 18 13
8 13 72 0 80 -5 3 -10 23 -10 43 0 20 -7 45 -15 55 -7 11 -11 25 -9 32 3 7 1
16 -5 20 -17 10 -14 92 4 99 11 4 15 22 15 75 0 45 5 74 13 83 8 7 16 29 19
49 5 28 2 39 -18 58 -27 26 -31 56 -9 65 18 6 21 82 4 88 -14 5 -39 74 -39
110 0 18 -7 29 -21 33 -18 6 -20 12 -13 61 5 44 3 58 -10 73 -15 17 -16 27 -7
77 13 70 14 191 2 198 -9 6 -19 50 -28 131 -3 28 -10 56 -15 62 -6 7 -9 50 -7
95 1 46 -1 91 -5 101 -5 10 -6 61 -4 115 3 73 1 99 -9 107 -10 8 -11 24 -5 72
8 58 7 62 -12 65 -19 3 -21 10 -22 95 -1 53 -6 98 -12 106 -7 8 -10 16 -7 19
3 3 -1 11 -10 18 -8 7 -15 20 -15 29 0 9 -4 21 -8 27 -5 5 -14 29 -21 54 -7
25 -17 53 -22 62 -5 10 -9 31 -9 48 0 16 -5 30 -11 30 -9 0 -10 30 -5 110 5
81 4 110 -5 110 -20 0 -59 44 -59 67 0 12 -5 25 -10 28 -14 8 -1 87 16 101 18
14 17 34 -1 58 -8 11 -15 30 -15 42 0 13 -5 26 -10 29 -6 4 -8 33 -5 71 3 39
1 64 -5 64 -16 0 -12 36 5 50 11 9 14 22 10 40 -9 42 69 117 174 169 73 36 93
41 151 41 61 0 69 2 96 31 28 29 32 30 102 27 39 -2 72 0 72 3 0 11 97 39 132
38 18 0 71 5 118 11 47 7 128 13 180 15 52 1 131 7 175 12 44 5 87 6 95 2 8
-4 121 -12 250 -18 179 -8 248 -7 292 2 31 7 60 16 64 20 4 4 20 7 35 7 15 0
31 5 34 10 4 6 30 11 58 11 29 -1 91 2 139 5 66 4 95 2 120 -10 37 -16 217
-29 233 -16 14 12 108 20 270 23 77 2 155 7 173 11 23 6 39 4 57 -8 30 -20
302 -39 323 -23 7 6 60 9 117 8 57 -1 106 2 109 7 9 15 219 2 232 -14 8 -9 32
-14 76 -14 41 0 71 -5 84 -15 10 -8 29 -15 40 -15 12 0 27 -7 34 -15 14 -17
75 -20 85 -5 3 6 21 10 39 10 18 0 51 9 74 20 22 11 54 20 71 20 16 0 33 5 36
10 3 6 24 10 45 10 21 0 42 5 45 10 9 15 56 12 75 -5 12 -11 52 -17 141 -21
79 -4 129 -11 139 -20 20 -17 164 -21 184 -5 16 14 102 7 122 -10 8 -7 14 -6
19 2 5 8 26 10 65 6 36 -4 61 -2 68 5 16 16 133 10 153 -8 25 -23 122 -19 144
6 13 14 31 20 61 20 24 0 46 5 49 11 5 7 53 8 148 4 148 -6 155 -8 292 -78 11
-6 141 -17 289 -25 214 -12 273 -12 289 -3 27 17 252 4 268 -15 13 -16 45 -18
54 -4 3 6 30 10 60 10 30 0 57 5 60 10 10 16 224 2 252 -16 16 -10 67 -14 195
-15 220 -2 246 -1 253 11 11 17 168 12 194 -6 19 -13 27 -14 45 -4 15 7 60 11
127 9 57 -1 124 1 149 6 41 6 48 4 85 -25 74 -60 138 -74 195 -45 20 11 55 15
112 14 115 -3 173 11 211 50 21 20 27 31 17 31 -8 0 -31 17 -50 36 -19 19 -47
38 -62 41 -27 5 -58 52 -58 87 0 8 -6 13 -13 10 -7 -2 -23 9 -35 26 -16 21
-31 30 -51 30 -16 0 -31 5 -33 11 -2 6 -35 13 -73 16 l-70 4 -62 64 c-53 55
-67 65 -97 65 -19 0 -36 -6 -38 -12 -3 -9 -26 -12 -77 -10 -46 2 -78 -1 -87
-9 -12 -10 -17 -8 -28 6 -12 16 -14 16 -37 2 -21 -14 -40 -15 -124 -8 -88 8
-102 7 -113 -7 -12 -16 -14 -16 -25 -1 -16 21 -132 33 -146 15 -10 -12 -51
-13 -188 -7 -22 1 -33 6 -33 16 0 19 -16 20 -23 1 -4 -10 -17 -13 -45 -9 -24
3 -42 1 -46 -6 -10 -15 -36 -14 -55 3 -12 11 -48 16 -129 17 -78 2 -116 7
-124 16 -6 7 -30 13 -54 13 -24 0 -49 6 -57 15 -10 9 -46 17 -101 21 -77 6
-88 5 -100 -11 -13 -18 -14 -18 -41 3 -25 20 -40 22 -146 22 -91 0 -121 3
-133 15 -8 8 -29 15 -46 15 -18 0 -33 6 -36 15 -7 18 -104 22 -104 4 0 -13
-237 -3 -255 11 -5 4 -27 10 -49 13 -21 3 -43 13 -50 20 -8 11 -43 16 -134 20
-95 3 -126 8 -140 21 -23 20 -41 20 -63 0 -16 -14 -29 -15 -113 -5 -52 6 -134
11 -182 11 -62 0 -92 4 -103 14 -12 11 -59 18 -156 24 -118 7 -142 6 -152 -6
-9 -11 -29 -13 -85 -9 -444 29 -449 30 -474 16 -20 -10 -29 -10 -44 -1 -11 7
-26 12 -34 12 -8 0 -16 7 -20 15 -6 17 -46 21 -46 5z m-1346 -1595 c15 -8 39
-15 52 -15 13 0 38 -12 56 -27 45 -38 74 -53 102 -53 13 0 36 -10 51 -22 26
-20 27 -24 21 -82 -6 -56 -4 -62 21 -88 15 -15 36 -28 48 -28 11 0 40 -20 64
-44 l44 -45 -6 -93 c-5 -88 -4 -95 20 -126 19 -25 23 -39 18 -62 -9 -42 -31
-83 -55 -105 -11 -10 -20 -24 -20 -31 0 -7 -18 -27 -40 -44 -22 -17 -40 -38
-40 -45 0 -18 -81 -94 -100 -95 -8 0 -29 -14 -47 -30 -18 -17 -38 -30 -46 -30
-8 0 -20 -7 -28 -16 -7 -9 -32 -25 -55 -36 -23 -10 -50 -28 -60 -39 -11 -12
-30 -19 -55 -19 -21 0 -41 -4 -44 -10 -3 -5 -17 -10 -31 -10 -14 0 -44 -9 -66
-20 -50 -24 -133 -26 -174 -5 -16 8 -39 15 -52 15 -12 0 -25 6 -28 14 -3 8
-13 12 -25 9 -14 -4 -19 0 -19 15 0 12 -43 63 -110 131 -60 61 -110 115 -110
120 0 5 -10 11 -22 13 -17 2 -23 10 -23 29 0 14 -6 33 -13 41 -8 10 -10 26 -6
42 4 17 2 26 -6 26 -9 0 -11 19 -8 68 4 53 1 70 -11 80 -14 11 -14 13 2 26 21
16 22 32 2 40 -9 3 -15 18 -15 34 0 16 7 35 15 42 8 7 15 18 15 26 0 7 9 18
21 25 l21 11 -21 19 c-25 23 -26 33 -6 53 8 8 15 25 15 38 0 13 5 29 11 35 6
6 16 21 23 34 11 22 18 27 71 49 77 32 104 48 155 91 66 55 80 61 148 65 30 2
60 8 68 14 8 7 47 11 104 9 60 -2 94 1 102 9 16 16 37 15 72 -3z"/>
<path d="M16510 13449 c0 -7 -27 -10 -80 -8 -53 2 -84 -1 -92 -9 -17 -17 -47
-15 -54 3 -8 19 -28 19 -44 0 -9 -11 -22 -14 -42 -10 -16 4 -35 2 -42 -4 -8
-7 -31 -11 -52 -9 -22 1 -39 -3 -41 -9 -3 -9 -27 -11 -84 -6 -66 5 -82 3 -98
-11 -17 -15 -28 -16 -97 -6 -67 9 -79 8 -86 -5 -12 -21 -51 -19 -95 5 -33 17
-39 18 -53 5 -13 -12 -31 -14 -77 -9 -40 4 -63 3 -67 -5 -4 -6 -36 -11 -76
-11 -40 0 -72 -5 -76 -11 -4 -8 -27 -9 -70 -5 -43 4 -65 3 -70 -5 -5 -9 -48
-10 -159 -5 -130 6 -153 5 -164 -8 -9 -10 -22 -14 -37 -10 -14 4 -31 1 -39 -6
-12 -10 -42 -11 -120 -6 -67 4 -106 3 -110 -4 -3 -5 -28 -10 -56 -10 -29 0
-49 -4 -49 -11 0 -8 -34 -9 -112 -5 -62 3 -201 11 -308 16 -107 5 -223 13
-257 16 -44 5 -63 3 -63 -5 0 -7 -23 -11 -64 -11 -38 0 -68 -5 -72 -11 -5 -9
-43 -10 -138 -4 -72 4 -149 9 -170 10 -22 1 -42 7 -44 13 -5 15 -62 16 -62 2
0 -12 -142 -1 -150 11 -12 17 -66 21 -79 6 -9 -12 -25 -14 -67 -10 -43 5 -58
2 -73 -11 -17 -16 -28 -17 -90 -7 -91 14 -188 14 -197 0 -5 -8 -31 -10 -85 -6
-62 5 -80 3 -90 -9 -8 -9 -21 -13 -35 -10 -13 4 -27 0 -35 -10 -8 -10 -21 -13
-37 -9 -16 4 -31 0 -43 -11 -17 -15 -21 -16 -36 -2 -27 23 -61 28 -74 11 -9
-10 -23 -13 -43 -9 -17 3 -66 6 -109 7 -76 2 -99 11 -109 40 -2 6 -28 14 -58
17 -43 4 -56 2 -66 -13 -8 -11 -21 -16 -33 -12 -12 3 -22 -1 -25 -10 -3 -7
-11 -13 -18 -11 -7 2 -27 -7 -45 -20 -17 -12 -36 -22 -42 -22 -17 0 -13 -14 9
-33 12 -10 20 -29 20 -48 0 -25 12 -43 53 -85 l53 -53 104 -2 c58 0 134 2 170
6 36 4 148 6 250 4 354 -4 481 0 524 17 13 5 24 1 35 -13 23 -28 57 -34 98
-17 32 14 37 13 61 -3 37 -24 164 -25 207 -1 60 34 76 37 241 43 168 6 252 0
370 -27 45 -10 85 -12 144 -6 51 5 89 4 100 -2 25 -14 97 -13 106 1 10 17 204
2 226 -18 19 -17 81 -14 188 8 75 16 168 15 225 -2 52 -15 53 -15 103 -44 46
-25 68 -24 91 8 7 10 19 16 26 13 7 -2 18 1 24 7 7 7 38 13 69 14 31 1 144 8
251 14 175 11 196 11 225 -4 39 -21 200 -25 335 -8 58 7 98 8 105 2 13 -11
169 -14 238 -5 33 4 56 1 79 -10 20 -10 58 -16 104 -16 59 0 75 4 90 20 22 24
100 28 124 6 20 -17 390 -40 406 -25 12 12 45 12 45 0 0 -5 26 -12 58 -16 31
-3 65 -11 76 -16 29 -16 122 -23 130 -10 11 17 131 14 150 -4 9 -9 34 -15 66
-15 36 0 52 -4 56 -15 4 -8 14 -15 24 -15 10 0 21 -7 24 -16 6 -16 8 -16 24 0
23 20 46 21 62 1 7 -8 19 -15 27 -15 7 0 16 -7 19 -15 4 -8 14 -15 23 -15 10
0 30 -14 47 -31 16 -17 39 -35 52 -40 12 -5 22 -16 22 -26 0 -10 9 -29 20 -43
11 -14 20 -30 20 -36 0 -6 11 -21 25 -34 17 -16 25 -33 23 -50 -1 -14 12 -56
31 -94 25 -54 32 -78 28 -107 -4 -33 -1 -41 30 -71 34 -32 35 -35 28 -91 -5
-49 -2 -64 19 -107 14 -28 23 -57 20 -65 -4 -8 -1 -21 5 -28 5 -7 10 -48 9
-90 0 -44 4 -83 11 -91 12 -14 8 -257 -5 -277 -3 -5 0 -17 7 -25 7 -9 11 -42
10 -88 -1 -41 2 -77 8 -80 15 -10 1 -188 -16 -208 -13 -14 -12 -19 2 -42 11
-16 15 -35 11 -50 -3 -13 0 -36 8 -51 14 -26 12 -47 -4 -70 -14 -20 -19 -102
-8 -113 8 -8 11 -44 9 -101 -1 -55 2 -92 8 -96 19 -11 12 -46 -17 -94 -23 -37
-27 -50 -18 -64 8 -12 8 -22 -2 -37 -6 -11 -12 -28 -12 -39 0 -10 -7 -21 -15
-25 -17 -6 -22 -101 -5 -111 15 -9 12 -41 -5 -55 -18 -15 -21 -135 -4 -145 7
-5 8 -46 3 -125 -5 -83 -3 -119 5 -124 16 -10 14 -37 -6 -58 -13 -14 -14 -21
-5 -30 15 -15 16 -122 2 -148 -6 -11 -15 -52 -20 -92 -5 -40 -13 -74 -19 -76
-14 -5 -14 -69 -1 -77 15 -10 12 -71 -5 -85 -17 -14 -21 -115 -5 -125 15 -10
12 -71 -5 -85 -17 -14 -21 -95 -5 -105 6 -3 10 -26 10 -50 0 -24 5 -47 10 -50
19 -12 11 -63 -14 -82 -17 -14 -25 -32 -29 -72 -3 -30 -10 -57 -15 -60 -5 -3
-12 -16 -16 -28 -4 -13 -11 -23 -15 -23 -5 0 -20 -11 -35 -25 -20 -19 -31 -23
-45 -16 -13 7 -20 5 -29 -9 -7 -12 -18 -16 -32 -13 -11 3 -20 0 -20 -6 0 -6
-13 -10 -29 -9 -16 1 -36 -4 -45 -11 -8 -7 -28 -11 -44 -10 -16 2 -37 -2 -46
-10 -9 -8 -26 -11 -40 -7 -17 4 -26 1 -30 -10 -5 -12 -14 -15 -36 -11 -16 4
-32 2 -35 -3 -3 -6 -24 -10 -45 -10 -21 0 -42 -4 -45 -10 -3 -5 -14 -10 -25
-10 -10 0 -20 -7 -24 -15 -4 -12 -17 -14 -61 -10 -44 4 -57 2 -61 -10 -5 -11
-15 -13 -45 -9 -28 5 -45 2 -57 -8 -14 -13 -37 -14 -132 -8 -63 4 -117 4 -120
0 -10 -14 -39 -18 -73 -10 -28 6 -39 4 -49 -7 -9 -11 -25 -14 -60 -11 -33 4
-52 1 -59 -8 -15 -18 -34 -18 -49 1 -11 14 -15 14 -29 1 -13 -12 -29 -13 -81
-6 -108 15 -226 16 -243 2 -11 -10 -47 -10 -167 0 -139 10 -153 10 -162 -5
-12 -22 -34 -21 -65 3 -30 23 -88 27 -100 6 -7 -12 -25 -13 -103 -6 -80 7 -98
5 -113 -8 -15 -14 -35 -14 -165 -5 -81 6 -156 11 -167 11 -11 0 -89 5 -173 11
-130 9 -157 8 -175 -4 -18 -12 -39 -13 -112 -5 -118 13 -202 12 -210 0 -10
-16 -75 -12 -81 5 -7 17 -69 21 -79 5 -10 -16 -65 -12 -71 5 -7 18 -74 21 -74
4 0 -8 -41 -10 -139 -7 -114 3 -143 6 -158 21 -24 21 -60 22 -81 1 -12 -12
-26 -15 -61 -10 -25 4 -118 11 -205 17 -130 8 -161 8 -167 -3 -6 -11 -29 -12
-106 -6 -82 6 -99 4 -106 -8 -7 -12 -20 -14 -65 -8 -32 3 -62 10 -67 15 -19
14 -195 24 -195 10 0 -9 -23 -10 -88 -5 -69 5 -90 4 -99 -8 -9 -11 -28 -12
-85 -7 -53 5 -77 3 -88 -6 -16 -14 -154 -12 -325 4 -71 6 -93 5 -106 -5 -20
-18 -36 -18 -46 0 -12 21 -139 28 -155 9 -10 -12 -28 -14 -88 -9 -233 19 -239
19 -256 6 -10 -9 -18 -10 -22 -3 -4 6 -21 14 -38 17 -24 5 -33 3 -37 -9 -6
-13 -24 -14 -124 -10 -87 4 -121 9 -129 20 -13 17 -34 20 -34 4 0 -7 -25 -10
-72 -7 -51 2 -73 -1 -76 -10 -3 -9 -17 -11 -52 -6 -35 5 -54 2 -73 -10 -22
-15 -36 -16 -108 -6 -105 13 -186 13 -194 0 -8 -13 -82 -13 -90 0 -3 6 -17 10
-29 10 -13 0 -35 9 -49 20 -22 18 -26 18 -37 4 -9 -10 -22 -13 -40 -9 -18 4
-31 1 -40 -10 -9 -11 -27 -15 -56 -14 -23 2 -49 -3 -57 -9 -19 -16 -158 -4
-172 15 -15 20 -296 35 -311 16 -6 -7 -18 -13 -27 -13 -9 0 -19 -5 -23 -11 -4
-7 -22 -9 -49 -5 -33 5 -44 3 -48 -8 -5 -12 -19 -14 -72 -9 -46 4 -65 2 -65
-6 0 -6 -11 -11 -24 -11 -13 0 -27 -7 -30 -16 -5 -12 -14 -14 -37 -9 -29 7
-46 2 -101 -26 -10 -5 -28 -9 -42 -9 -13 0 -29 -7 -36 -15 -10 -12 -24 -14
-60 -9 -30 4 -50 2 -54 -5 -4 -6 -16 -11 -27 -11 -10 0 -19 -4 -19 -10 0 -5
-12 -10 -26 -10 -16 0 -34 -10 -46 -25 -11 -14 -25 -25 -32 -25 -6 0 -20 -20
-30 -45 -11 -25 -23 -45 -29 -45 -5 0 -6 -11 -2 -27 4 -16 7 -37 7 -47 -1 -27
49 -88 110 -132 65 -48 94 -49 296 -8 17 3 32 10 32 15 0 5 11 9 25 9 14 0 33
4 43 9 9 5 37 15 62 22 25 7 50 16 55 19 27 19 199 41 302 40 39 -1 113 6 165
15 55 10 131 16 188 15 122 -4 107 -4 235 8 100 10 145 19 257 54 31 9 41 8
64 -7 21 -13 37 -16 73 -10 25 4 80 9 121 10 84 4 215 19 305 36 33 6 69 11
80 11 64 -2 311 -2 375 0 89 2 303 -10 380 -21 58 -9 361 10 393 24 11 4 28 2
42 -5 14 -7 35 -10 52 -6 88 22 154 26 318 20 127 -5 188 -11 209 -21 23 -12
34 -12 57 -3 41 17 315 20 338 3 10 -6 45 -12 77 -13 135 -1 403 10 451 19 80
15 337 13 543 -4 141 -12 194 -13 216 -5 16 6 99 14 184 17 175 6 179 6 275
-2 119 -11 239 -14 538 -15 209 0 294 -3 310 -12 43 -25 123 -41 192 -40 190
4 299 16 322 34 6 5 89 9 185 9 95 0 195 0 221 0 27 0 54 -4 60 -9 21 -17 96
-25 112 -12 11 9 60 10 195 5 126 -5 184 -4 193 3 10 8 69 8 216 0 144 -8 208
-8 220 -1 10 6 37 9 62 6 36 -4 48 -1 63 16 11 12 27 21 36 21 9 0 27 11 40
25 13 14 44 34 69 46 74 33 76 35 82 73 3 20 11 42 18 49 6 6 11 20 11 32 1
24 33 65 52 65 7 0 27 13 44 29 24 23 31 38 32 72 1 23 9 50 18 60 13 14 13
20 2 38 -9 16 -10 24 -2 29 13 8 25 220 12 228 -4 3 -8 34 -8 70 0 47 4 66 14
70 27 10 27 34 -1 45 l-26 10 7 120 c6 101 4 122 -9 135 -9 9 -13 25 -10 37 3
12 9 90 14 172 6 121 5 153 -5 166 -21 23 -18 133 2 154 12 11 18 40 21 88 3
41 10 76 18 82 20 16 28 214 9 240 -9 13 -13 34 -9 65 2 25 9 135 15 245 7
130 16 211 25 230 9 18 18 90 23 180 7 127 6 152 -6 161 -11 8 -13 21 -8 47 4
22 2 38 -5 43 -8 4 -10 54 -8 168 3 114 0 167 -8 183 -10 16 -10 35 -2 77 8
45 7 60 -5 78 -12 19 -13 42 -5 140 9 101 8 121 -5 140 -12 16 -14 35 -10 74
4 34 3 54 -5 58 -8 6 -10 36 -5 105 5 69 3 100 -5 105 -6 4 -11 33 -11 65 0
52 -3 60 -35 91 -33 32 -34 36 -28 87 4 41 2 57 -10 71 -8 9 -18 35 -22 57 -7
45 -13 62 -44 123 -11 24 -21 55 -21 68 0 14 -9 34 -20 46 -11 13 -20 36 -20
54 0 18 -4 34 -8 36 -12 5 -52 74 -52 89 0 8 -8 21 -17 30 -10 8 -35 34 -56
57 -21 24 -41 40 -46 38 -4 -3 -22 12 -40 34 -26 32 -38 40 -65 40 -19 0 -39
7 -46 15 -7 8 -21 15 -32 15 -10 0 -21 7 -25 16 -3 8 -12 13 -20 10 -7 -3 -16
1 -19 9 -4 9 -19 15 -35 15 -17 0 -32 6 -35 15 -4 10 -20 15 -49 15 -25 0 -45
5 -48 13 -4 9 -7 9 -14 0 -12 -17 -154 -7 -169 12 -7 9 -34 14 -89 14 -64 0
-82 4 -93 18 -11 16 -14 16 -40 1 -31 -18 -91 -13 -99 8 -4 10 -25 14 -79 14
-59 0 -75 3 -84 18 -10 16 -10 16 -20 0 -14 -23 -34 -23 -51 1 -12 17 -33 19
-176 25 -115 4 -163 3 -163 -5z"/>
<path d="M10385 13221 c-16 -3 -34 -16 -40 -27 -6 -12 -16 -28 -22 -35 -6 -8
-14 -30 -18 -49 -4 -19 -12 -42 -18 -51 -8 -13 -5 -24 17 -50 34 -40 30 -72
-25 -194 -10 -22 -23 -51 -28 -65 -6 -14 -25 -47 -41 -75 -16 -27 -34 -60 -39
-72 -6 -11 -15 -24 -20 -28 -6 -3 -11 -15 -11 -26 0 -10 -4 -19 -10 -19 -5 0
-10 -6 -10 -13 0 -7 -13 -24 -30 -39 -25 -22 -30 -34 -30 -72 0 -24 -4 -48
-10 -51 -5 -3 -10 -15 -10 -26 0 -11 -7 -22 -15 -25 -8 -4 -15 -16 -15 -28 0
-13 -11 -33 -25 -46 -20 -18 -25 -33 -25 -70 0 -25 -7 -55 -15 -66 -8 -10 -15
-40 -15 -65 0 -29 -6 -51 -15 -59 -8 -7 -15 -29 -15 -50 0 -21 -7 -43 -15 -50
-8 -7 -15 -20 -15 -30 0 -10 -7 -31 -15 -46 -8 -16 -15 -41 -15 -56 0 -16 -4
-28 -10 -28 -5 0 -10 -13 -10 -29 0 -16 -7 -34 -15 -41 -8 -7 -15 -29 -15 -49
0 -21 -7 -46 -15 -57 -8 -10 -15 -40 -15 -65 0 -29 -6 -51 -15 -59 -8 -7 -15
-23 -15 -35 0 -12 -7 -28 -15 -35 -8 -7 -15 -24 -15 -39 0 -15 -8 -31 -19 -38
-16 -10 -32 -35 -78 -125 -8 -15 -18 -30 -24 -33 -5 -4 -9 -17 -9 -30 0 -13
-11 -32 -25 -43 -18 -14 -25 -29 -25 -55 0 -19 -7 -40 -15 -47 -8 -7 -15 -28
-15 -47 0 -26 -7 -41 -25 -55 -14 -11 -25 -27 -25 -35 0 -30 -35 -92 -51 -93
-18 0 -49 -31 -49 -48 0 -6 -11 -19 -25 -28 -19 -13 -25 -25 -25 -54 0 -21 -7
-43 -15 -50 -8 -7 -15 -20 -15 -30 0 -10 -7 -21 -16 -24 -8 -3 -12 -10 -9 -16
4 -6 -7 -33 -24 -60 -17 -28 -31 -57 -31 -65 0 -8 -4 -15 -10 -15 -5 0 -10 -7
-10 -15 0 -8 -11 -22 -24 -30 -13 -9 -27 -27 -30 -41 -4 -13 -11 -24 -16 -24
-6 0 -10 -7 -10 -16 0 -8 -7 -22 -15 -30 -8 -9 -15 -31 -15 -49 0 -19 -4 -37
-10 -40 -5 -3 -10 -21 -10 -39 0 -19 -7 -39 -15 -46 -8 -7 -15 -20 -15 -30 0
-10 -7 -23 -15 -30 -8 -7 -15 -22 -15 -35 0 -12 -13 -34 -30 -48 -16 -15 -30
-33 -30 -40 0 -7 -9 -18 -20 -25 -11 -7 -20 -18 -20 -26 0 -7 -7 -19 -15 -26
-8 -7 -15 -21 -15 -31 0 -11 -4 -19 -9 -19 -19 0 -41 -32 -41 -61 0 -16 -4
-29 -10 -29 -5 0 -10 -11 -10 -24 0 -13 -7 -29 -15 -36 -8 -7 -15 -18 -15 -24
0 -7 -11 -23 -25 -36 -14 -13 -25 -31 -25 -41 0 -10 -11 -30 -24 -46 -13 -15
-26 -38 -30 -50 -4 -12 -16 -25 -27 -28 -11 -4 -19 -15 -19 -29 0 -12 -7 -31
-15 -42 -8 -10 -15 -29 -15 -41 0 -12 -11 -30 -25 -41 -15 -12 -25 -30 -25
-45 0 -14 -4 -29 -10 -32 -14 -8 -70 -133 -70 -154 0 -10 -7 -24 -15 -31 -8
-7 -15 -20 -15 -30 0 -25 -26 -73 -55 -100 -14 -13 -25 -30 -25 -37 0 -12 -9
-34 -32 -73 -4 -8 -13 -26 -19 -40 -6 -14 -15 -33 -20 -42 -5 -10 -9 -24 -9
-32 0 -8 -9 -18 -20 -21 -11 -3 -25 -15 -31 -26 -5 -11 -18 -18 -27 -17 -9 2
-18 -5 -20 -16 -2 -11 -15 -28 -28 -39 -13 -10 -24 -26 -24 -36 0 -9 -4 -21
-9 -26 -19 -20 -51 -115 -39 -115 7 0 25 -12 40 -27 38 -36 39 -93 2 -130 -14
-14 -30 -35 -35 -47 -5 -11 -17 -34 -27 -51 -11 -17 -22 -61 -25 -103 -8 -81
3 -115 47 -150 22 -17 32 -18 75 -9 51 10 92 40 139 104 12 17 34 34 47 37 14
4 25 13 25 20 0 8 11 21 25 30 14 9 25 26 25 39 0 12 7 31 15 41 8 11 15 38
15 61 0 29 7 48 25 67 14 15 25 31 25 36 0 5 11 19 25 32 14 13 25 32 25 42 0
10 5 18 10 18 6 0 20 22 32 50 12 28 25 50 30 50 4 0 8 6 8 13 0 6 12 23 25
36 14 13 25 29 25 37 0 7 13 23 29 35 25 18 29 27 24 51 -3 18 0 35 9 46 8 9
22 34 32 54 9 20 21 40 26 43 13 8 40 65 40 85 0 10 7 23 15 30 8 7 15 17 15
23 0 6 10 21 21 33 24 25 45 59 55 87 3 9 11 17 16 17 5 0 6 9 3 20 -5 15 3
30 30 57 20 20 41 46 46 58 5 11 22 43 39 70 16 28 33 57 37 65 3 8 12 19 20
23 7 4 13 25 14 45 0 20 9 51 20 67 10 17 22 37 26 45 3 8 12 19 20 23 8 5 13
27 13 58 0 35 4 51 15 55 10 4 15 20 15 50 0 30 5 46 15 50 8 4 15 12 15 19 0
19 30 75 41 75 5 0 9 18 9 39 0 22 5 43 10 46 6 3 10 15 10 26 0 11 7 22 15
25 8 4 15 12 15 18 0 7 11 23 25 36 14 13 25 29 25 36 0 6 6 17 14 24 8 6 12
18 9 26 -3 8 3 25 14 37 11 12 27 39 37 59 9 20 21 40 26 43 6 3 10 17 10 29
0 16 17 38 50 66 28 23 50 48 50 55 0 7 7 19 16 26 12 9 14 23 10 50 -4 28 -1
43 14 62 11 14 20 30 20 36 0 6 5 11 10 11 6 0 10 13 10 29 0 16 7 34 15 41 8
7 15 18 15 25 0 7 7 18 15 25 8 7 12 16 9 22 -3 5 1 20 10 33 9 13 16 33 16
43 0 11 7 25 15 32 8 7 15 29 15 50 0 21 7 43 15 50 8 7 15 22 16 34 0 11 9
35 20 51 10 17 23 40 28 52 5 11 15 24 20 28 6 3 11 20 11 36 0 36 25 99 39
99 6 0 11 6 11 13 0 8 11 24 25 37 14 13 25 33 25 45 0 11 5 26 11 32 6 6 13
53 15 104 4 82 7 94 29 115 14 13 25 30 25 39 0 9 7 18 15 21 10 4 13 13 10
25 -4 11 1 25 14 36 12 10 21 23 21 29 0 18 27 66 42 75 11 7 11 12 0 29 -10
17 -10 25 -1 36 6 7 13 31 16 51 3 21 10 41 15 44 6 4 8 19 5 34 -4 22 2 35
30 62 33 33 34 38 31 99 -2 52 1 66 16 77 14 10 17 22 14 46 -3 19 1 36 9 42
7 6 13 19 13 29 0 10 6 20 14 23 9 4 15 27 18 66 3 46 9 65 26 79 14 12 22 31
22 50 0 17 6 37 13 44 31 35 47 82 47 143 0 47 4 64 15 69 9 3 15 18 15 34 0
16 7 35 15 42 8 7 15 16 15 21 0 4 11 20 25 35 14 15 25 32 25 39 0 6 22 31
50 56 49 43 50 45 50 100 0 38 5 61 15 69 18 15 20 70 3 93 -11 14 -36 17
-138 20 -69 3 -132 7 -140 9 -8 3 -28 3 -45 -1z"/>
<path d="M5270 12291 c-8 -5 -35 -15 -59 -22 -25 -8 -56 -24 -69 -36 -14 -13
-29 -23 -34 -23 -4 0 -30 -9 -56 -21 -26 -12 -58 -26 -72 -31 -47 -19 -55 -25
-58 -44 -4 -22 -122 -123 -164 -141 -15 -6 -30 -22 -34 -35 -3 -13 -55 -66
-115 -118 -60 -52 -109 -102 -109 -111 0 -10 -5 -19 -11 -21 -12 -4 -15 -36
-24 -225 -4 -95 -2 -133 6 -139 8 -5 10 -35 5 -105 -4 -64 -3 -100 4 -104 5
-3 10 -18 10 -33 1 -33 19 -58 45 -64 16 -3 20 -12 20 -43 0 -22 10 -61 23
-86 12 -25 22 -50 22 -56 0 -6 7 -16 15 -23 24 -20 45 -71 45 -109 0 -29 10
-47 55 -96 30 -33 55 -66 55 -73 0 -8 25 -43 56 -78 49 -55 61 -64 90 -64 24
0 41 -8 56 -25 12 -14 27 -25 33 -25 6 0 26 -17 43 -38 30 -39 31 -39 119 -45
49 -4 102 -11 119 -17 21 -7 39 -8 57 -1 17 7 82 7 194 0 92 -5 243 -14 335
-18 92 -4 173 -13 180 -18 22 -18 52 -20 81 -6 15 8 36 11 47 8 10 -3 21 -1
25 5 3 5 14 10 24 10 17 0 51 65 51 98 0 7 9 12 20 12 32 0 97 65 103 103 5
36 -19 81 -39 73 -8 -3 -17 2 -22 11 -12 21 -231 36 -248 17 -8 -10 -29 -12
-78 -7 -52 5 -70 3 -84 -10 -12 -11 -32 -14 -67 -12 -27 2 -53 4 -57 5 -5 0
-8 6 -8 14 0 16 -108 26 -288 26 -116 0 -124 1 -129 20 -5 17 -11 19 -40 14
-25 -5 -39 -2 -53 11 -11 10 -20 14 -20 9 0 -5 -16 8 -35 29 -19 21 -35 43
-35 48 0 6 -9 7 -20 4 -13 -4 -22 -1 -26 9 -3 9 -15 16 -25 16 -13 0 -19 7
-19 24 0 19 -6 25 -27 28 -19 2 -29 10 -31 23 -5 26 -41 65 -69 76 -13 5 -23
17 -23 28 0 11 -4 23 -10 26 -5 3 -10 14 -10 24 0 10 -11 28 -25 41 -30 29
-31 38 -4 90 31 58 97 110 142 110 20 0 39 5 43 11 4 8 32 9 88 5 70 -6 87 -4
123 13 28 14 62 21 102 21 33 0 63 5 66 11 7 10 30 11 307 13 86 1 160 4 164
9 13 12 61 8 74 -8 7 -8 22 -15 33 -15 12 0 33 -12 48 -26 l28 -26 33 23 c18
13 36 24 40 24 13 0 48 35 48 48 0 7 -7 22 -15 33 -8 10 -15 22 -15 26 0 3 25
30 55 59 50 48 55 56 55 96 0 39 -2 43 -24 43 -25 0 -46 19 -50 43 -1 8 -8 22
-15 31 -7 9 -9 21 -5 28 5 7 7 20 6 30 -2 9 2 19 8 23 5 3 10 15 10 26 0 10 5
19 10 19 7 0 7 7 0 20 -6 11 -8 25 -5 30 3 5 -6 17 -20 26 -23 15 -26 22 -20
51 4 20 2 33 -5 33 -5 0 -10 6 -10 14 0 7 -7 19 -15 26 -8 7 -15 22 -15 34 0
31 -37 63 -82 71 -20 4 -46 18 -59 31 -12 13 -32 24 -44 24 -13 0 -35 15 -52
35 -17 19 -35 35 -40 35 -6 0 -16 7 -23 15 -7 9 -29 15 -52 15 -25 0 -41 5
-44 15 -4 8 -13 15 -21 15 -8 0 -21 7 -29 15 -9 9 -34 15 -59 15 -24 0 -46 4
-50 9 -10 18 -329 37 -355 22z m335 -375 c11 -7 48 -17 83 -21 34 -4 62 -11
62 -16 0 -5 5 -9 12 -9 7 0 32 -19 55 -42 38 -37 43 -48 43 -86 0 -23 -4 -48
-10 -55 -50 -63 -75 -87 -89 -87 -10 0 -28 -12 -42 -26 -21 -23 -30 -25 -69
-21 -29 4 -51 1 -63 -8 -18 -13 -52 -10 -73 6 -6 5 -51 12 -100 15 -75 6 -91
4 -103 -9 -7 -9 -35 -20 -62 -23 -27 -4 -52 -11 -55 -15 -3 -5 -20 -9 -39 -9
-19 0 -37 -4 -40 -10 -3 -5 -30 -10 -59 -10 -28 0 -57 -5 -63 -11 -7 -7 -26
-8 -52 -4 -40 7 -41 8 -41 46 0 25 9 54 25 79 14 22 25 44 25 49 0 5 27 32 60
61 33 28 65 63 72 77 7 15 20 29 28 33 8 4 25 12 37 18 13 7 32 12 43 12 11 0
29 5 40 10 11 6 29 15 40 20 11 6 31 10 44 10 14 0 28 5 31 10 3 6 15 10 26
10 10 0 19 5 19 10 0 16 192 13 215 -4z"/>
<path d="M12230 12289 c0 -7 -14 -8 -41 -4 -29 5 -44 3 -49 -5 -11 -17 -79
-40 -97 -33 -9 4 -20 -1 -25 -10 -7 -13 -18 -16 -49 -11 -32 5 -43 3 -53 -11
-9 -12 -19 -16 -31 -11 -11 4 -25 0 -36 -10 -12 -11 -27 -14 -43 -10 -15 4
-26 1 -29 -7 -2 -8 -23 -11 -70 -9 -46 3 -67 0 -67 -8 0 -7 -16 -11 -45 -9
-25 2 -50 -2 -57 -9 -7 -7 -36 -9 -90 -5 -65 5 -81 3 -91 -10 -10 -14 -22 -15
-69 -8 -37 5 -61 4 -68 -3 -6 -6 -21 -11 -33 -11 -13 -1 -34 -8 -46 -17 -12
-9 -30 -14 -41 -11 -10 3 -20 0 -24 -5 -3 -5 -42 -7 -93 -5 -80 5 -90 4 -107
-16 -11 -11 -26 -21 -33 -21 -22 0 -103 -70 -103 -89 0 -9 -9 -22 -20 -28 -11
-7 -29 -33 -40 -57 -11 -25 -24 -48 -30 -51 -5 -3 -10 -33 -10 -65 0 -39 -5
-64 -15 -74 -9 -9 -15 -33 -15 -61 0 -31 -5 -47 -15 -51 -10 -4 -15 -20 -15
-44 0 -21 -7 -43 -15 -50 -11 -9 -15 -32 -15 -80 0 -48 -4 -71 -15 -80 -10 -8
-15 -31 -15 -64 -1 -36 -8 -62 -26 -91 -13 -22 -27 -48 -30 -57 -4 -10 -10
-18 -15 -18 -5 0 -9 -9 -9 -20 0 -11 -7 -23 -15 -26 -22 -9 -19 -27 9 -53 22
-21 23 -27 18 -119 -3 -62 -9 -103 -18 -113 -8 -8 -14 -25 -14 -36 0 -11 -6
-26 -13 -32 -10 -7 -16 -51 -20 -143 -5 -103 -10 -134 -22 -140 -11 -7 -15
-27 -15 -78 0 -38 5 -72 10 -75 6 -3 10 -13 10 -22 0 -9 10 -27 22 -40 26 -28
26 -80 1 -98 -20 -15 -11 -44 27 -81 22 -22 30 -38 30 -66 0 -32 7 -44 46 -80
26 -24 55 -46 65 -50 10 -4 25 -18 34 -31 9 -14 26 -27 38 -30 88 -22 115 -30
144 -43 28 -14 49 -14 165 -3 136 12 334 14 558 5 159 -6 170 -6 255 -4 39 1
120 -2 180 -7 94 -6 114 -11 138 -31 32 -27 72 -30 122 -10 44 19 55 42 54
111 -2 50 2 60 30 89 33 34 42 80 16 90 -8 3 -15 16 -15 29 0 31 -20 48 -46
41 -12 -3 -26 1 -33 10 -9 11 -31 16 -70 16 -31 1 -76 5 -101 10 -40 8 -48 6
-71 -16 -14 -13 -33 -24 -42 -24 -9 0 -17 -5 -17 -11 0 -8 -19 -10 -64 -5 -49
5 -66 3 -75 -8 -16 -19 -138 -16 -152 5 -8 11 -12 11 -16 2 -7 -19 -103 -17
-103 1 0 18 -70 27 -77 10 -5 -14 -81 -13 -348 5 -128 9 -151 8 -158 -4 -4 -8
-20 -15 -34 -15 -32 0 -93 37 -93 55 0 23 -31 109 -45 125 -7 8 -16 32 -20 52
-4 21 -13 42 -21 49 -18 15 -18 28 0 48 8 9 17 35 21 58 5 35 4 44 -9 49 -14
5 -15 17 -10 73 4 36 12 73 18 81 25 33 36 61 36 89 0 22 12 41 48 75 26 25
55 46 64 46 9 0 20 5 24 11 4 7 24 9 53 6 30 -4 52 -1 64 8 11 8 33 11 57 8
25 -4 46 -1 55 7 12 10 44 11 134 6 80 -5 121 -4 126 3 7 12 127 15 139 4 3
-4 52 -6 107 -4 75 2 106 -1 123 -12 25 -17 154 -29 162 -16 3 5 13 9 22 9 24
0 82 52 82 73 0 9 3 17 8 17 11 0 32 51 32 76 0 13 9 29 19 36 18 13 18 14 1
36 -10 12 -24 22 -31 22 -7 0 -33 22 -58 50 l-46 50 -92 6 c-75 6 -99 4 -127
-10 -19 -9 -38 -20 -41 -25 -3 -5 -22 -7 -44 -4 -22 3 -41 1 -45 -5 -4 -7 -42
-9 -111 -5 -87 5 -108 3 -123 -10 -13 -12 -26 -14 -62 -7 -69 14 -141 12 -154
-4 -8 -10 -25 -12 -70 -7 -45 6 -59 4 -63 -7 -5 -11 -18 -12 -62 -7 -84 10
-91 20 -89 127 1 65 5 91 15 95 8 3 13 21 13 43 0 21 7 43 15 50 9 8 15 29 15
56 0 24 6 49 15 58 8 8 15 26 15 41 0 14 7 28 15 31 8 4 15 18 15 34 0 19 9
36 25 48 15 12 25 30 25 44 0 30 80 101 125 112 50 12 98 24 140 36 22 7 60
13 85 14 25 2 54 8 66 14 11 6 39 8 63 5 39 -5 56 -1 113 28 10 5 36 9 57 9
22 0 43 5 46 10 3 6 24 10 45 10 21 0 42 5 45 10 3 6 21 10 40 10 19 0 37 5
41 11 4 7 21 9 44 5 24 -4 40 -2 42 5 2 6 22 17 43 25 42 14 140 9 162 -8 24
-19 66 3 144 74 78 71 79 72 79 121 0 41 -3 48 -18 45 -20 -3 -92 31 -92 44 0
5 -13 8 -30 8 -16 0 -30 -5 -30 -11z"/>
<path d="M6745 12230 c-3 -5 -13 -10 -22 -10 -8 0 -55 -36 -104 -81 -101 -92
-110 -116 -63 -171 14 -18 23 -37 19 -46 -3 -9 5 -27 21 -43 22 -23 25 -34 20
-61 -5 -29 -2 -38 20 -59 24 -22 25 -28 19 -85 -4 -40 -3 -64 4 -69 6 -3 11
-40 11 -86 0 -62 -3 -81 -15 -85 -10 -4 -15 -19 -15 -43 0 -29 7 -44 31 -67
l31 -29 -4 -112 c-2 -62 0 -113 3 -113 3 0 7 -30 7 -67 1 -36 6 -71 12 -77 13
-13 13 -69 -1 -83 -8 -8 -5 -22 9 -50 17 -33 19 -52 15 -128 -4 -62 -11 -96
-21 -108 -13 -15 -14 -22 -4 -37 15 -25 15 -78 1 -135 -9 -36 -8 -54 6 -99 10
-31 24 -61 31 -67 19 -15 105 -18 124 -4 8 6 34 18 58 25 29 9 57 29 83 58 43
49 45 56 25 91 -15 27 -10 65 10 82 16 13 19 65 4 74 -5 3 -10 34 -10 69 0 34
-4 66 -10 72 -6 6 -5 74 2 192 11 170 10 183 -7 201 -19 22 -14 67 10 85 18
14 23 112 7 128 -14 14 -16 45 -2 53 5 3 17 23 27 43 9 20 27 48 40 61 13 13
23 30 23 37 0 8 5 14 10 14 6 0 10 7 10 15 0 21 80 95 110 101 28 6 43 12 112
44 26 11 48 24 50 28 2 4 21 15 43 26 22 10 48 23 58 28 11 5 38 8 61 7 22 -2
50 2 61 8 24 14 123 5 150 -13 11 -8 43 -14 72 -14 64 0 153 -43 195 -95 16
-19 34 -35 39 -35 6 0 30 -16 54 -36 32 -27 46 -48 54 -80 6 -24 20 -49 31
-57 24 -17 40 -58 40 -106 0 -25 7 -44 20 -56 11 -10 20 -24 20 -30 0 -7 6
-18 14 -24 24 -20 36 -135 16 -155 -13 -13 -13 -53 0 -61 6 -3 10 -22 10 -40
0 -19 8 -49 18 -67 10 -18 22 -46 26 -63 19 -77 28 -136 33 -200 3 -38 9 -76
15 -82 17 -21 -1 -65 -40 -99 -35 -30 -37 -35 -39 -99 -1 -50 3 -76 18 -101
10 -19 19 -45 19 -58 0 -24 29 -57 93 -108 42 -34 97 -37 154 -9 21 10 60 29
87 42 26 13 55 34 63 46 9 13 24 23 34 23 11 0 19 4 19 9 0 5 7 17 17 26 29
30 24 70 -13 106 -19 18 -34 29 -34 25 0 -5 -7 -3 -15 4 -14 12 -14 15 0 36 8
13 15 33 15 44 0 11 7 23 15 26 20 8 19 30 0 38 -16 6 -16 16 1 109 5 24 2 27
-20 27 -24 0 -47 25 -52 59 -2 7 -7 18 -13 24 -6 6 -8 29 -4 54 4 33 2 48 -11
62 -9 10 -14 25 -10 34 3 8 -2 27 -11 40 -15 24 -15 27 4 46 25 25 27 56 5 65
-14 5 -16 16 -11 58 6 50 5 54 -29 89 -33 33 -36 42 -32 81 3 35 0 48 -19 68
-13 14 -23 31 -23 38 0 8 -9 25 -20 39 -11 14 -20 36 -20 49 0 12 -5 26 -11
30 -7 4 -10 27 -7 60 3 30 1 54 -3 54 -11 0 -59 83 -59 102 0 8 -9 23 -20 33
-11 10 -20 26 -20 35 0 11 -10 20 -25 24 -14 4 -25 13 -25 21 0 9 -11 19 -23
24 -13 5 -41 25 -62 45 -21 20 -44 36 -52 36 -7 0 -16 7 -19 15 -4 8 -15 15
-25 15 -11 0 -22 7 -26 16 -3 9 -13 14 -25 11 -10 -3 -25 1 -32 9 -8 8 -26 14
-41 14 -14 0 -28 7 -31 15 -7 18 -45 20 -63 3 -10 -11 -17 -8 -34 13 -21 25
-29 27 -135 34 -84 5 -116 4 -127 -5 -11 -9 -34 -11 -74 -7 -38 4 -62 2 -69
-5 -7 -7 -30 -11 -52 -10 -23 2 -40 -2 -40 -8 0 -5 -15 -10 -34 -10 -19 0 -38
-4 -41 -10 -3 -5 -19 -10 -35 -10 -16 0 -32 -4 -35 -10 -3 -5 -17 -10 -31 -10
-13 0 -32 -4 -42 -9 -9 -5 -37 -18 -62 -29 -25 -11 -65 -41 -90 -66 -24 -25
-52 -46 -61 -46 -9 0 -22 -7 -29 -15 -16 -19 -25 -19 -44 1 -24 23 -21 96 4
119 20 18 20 18 0 32 -11 8 -18 18 -15 23 3 5 0 19 -7 30 -11 18 -10 23 5 34
19 14 23 51 7 61 -5 3 -10 18 -10 33 -1 41 -22 62 -62 62 -24 0 -42 8 -58 25
-17 18 -34 25 -61 25 -21 0 -41 -4 -44 -10z"/>
<path d="M12638 11213 c-6 -7 -14 -11 -18 -8 -11 7 -70 -44 -70 -60 0 -7 -7
-18 -15 -25 -25 -21 -17 -54 20 -90 22 -22 35 -43 33 -55 -1 -11 7 -35 20 -52
12 -17 22 -38 22 -46 0 -9 5 -19 10 -22 6 -3 10 -33 10 -65 0 -32 5 -62 10
-65 6 -3 10 -21 10 -39 0 -19 7 -39 15 -46 22 -18 43 -68 49 -117 15 -107 19
-129 27 -139 5 -7 10 -25 10 -40 1 -16 3 -89 5 -162 2 -87 7 -139 15 -149 8
-9 14 -59 17 -131 2 -64 8 -121 13 -127 5 -5 9 -19 9 -31 0 -12 9 -33 20 -47
11 -14 20 -35 20 -46 0 -14 10 -25 28 -32 15 -6 35 -15 45 -21 18 -9 72 3 107
23 8 5 24 13 35 18 11 5 39 27 63 49 45 42 55 79 27 102 -8 7 -15 21 -15 31 0
10 -5 21 -11 24 -6 4 -8 22 -4 45 4 23 2 41 -4 45 -6 3 -11 14 -11 24 0 10 -7
24 -15 31 -9 8 -13 21 -9 36 3 13 2 24 -3 24 -5 0 -16 12 -24 28 -12 21 -14
45 -9 112 5 63 3 89 -7 101 -20 24 -16 39 25 80 49 50 92 104 92 116 0 15 216
233 231 233 6 0 27 12 46 26 19 14 41 23 51 20 9 -3 35 -1 57 5 91 24 145 32
240 36 55 2 125 6 155 9 60 7 109 -12 143 -53 15 -19 28 -23 77 -23 32 0 62 5
65 10 3 6 13 10 22 10 9 0 36 9 60 21 43 21 43 21 43 75 0 30 -4 54 -10 54 -5
0 -10 20 -10 44 0 25 -4 48 -10 51 -5 3 -10 16 -10 28 -1 46 -24 60 -102 63
-52 2 -74 7 -80 19 -12 20 -81 20 -99 -1 -7 -8 -21 -13 -30 -11 -10 3 -24 -2
-31 -10 -7 -9 -22 -13 -39 -9 -18 3 -29 0 -33 -9 -4 -11 -17 -13 -58 -8 -29 3
-57 11 -61 17 -6 8 -10 7 -13 -1 -4 -8 -19 -11 -48 -7 -30 5 -45 2 -54 -9 -9
-10 -27 -13 -62 -11 -32 2 -50 -1 -50 -8 0 -7 -18 -9 -52 -6 -46 5 -54 2 -77
-21 -14 -14 -31 -24 -38 -23 -6 1 -14 -2 -18 -8 -3 -5 -15 -10 -26 -10 -11 0
-22 -7 -25 -15 -4 -10 -14 -13 -29 -9 -15 4 -24 0 -28 -10 -4 -9 -15 -16 -26
-16 -11 0 -25 -9 -31 -20 -6 -11 -20 -20 -30 -20 -11 0 -20 -4 -20 -10 0 -5
-9 -10 -20 -10 -30 0 -72 -21 -106 -53 -24 -22 -39 -28 -65 -25 -33 3 -34 4
-37 53 -2 27 -7 55 -13 61 -5 6 -6 44 -3 85 5 62 4 77 -10 88 -9 7 -16 19 -16
25 -1 18 -48 66 -65 66 -9 0 -18 7 -21 15 -4 10 -14 13 -29 9 -15 -4 -27 0
-36 13 -16 21 -95 25 -111 6z"/>
<path d="M16272 11187 c-10 -11 -23 -14 -49 -10 -27 5 -38 2 -45 -11 -6 -11
-16 -15 -29 -11 -11 4 -19 2 -19 -4 0 -6 -15 -11 -34 -11 -23 0 -42 -8 -57
-24 -13 -13 -29 -22 -36 -19 -7 3 -16 -2 -19 -12 -4 -9 -13 -14 -22 -10 -25 9
-122 -107 -122 -148 0 -13 -7 -30 -15 -37 -8 -7 -15 -17 -15 -22 0 -5 -10 -18
-21 -27 -12 -10 -23 -31 -25 -47 -2 -16 -10 -34 -19 -40 -8 -6 -15 -19 -15
-28 0 -9 -8 -16 -20 -16 -11 0 -20 -6 -20 -14 0 -7 -7 -19 -15 -26 -8 -7 -15
-22 -15 -34 0 -13 -11 -32 -25 -44 -14 -12 -25 -28 -25 -35 0 -7 -5 -18 -12
-25 -7 -7 -14 -47 -16 -89 -2 -48 -9 -84 -18 -94 -8 -8 -14 -20 -14 -26 0 -6
-6 -16 -14 -22 -12 -10 -11 -18 10 -48 13 -20 24 -42 24 -49 0 -8 5 -14 10
-14 6 0 10 -13 10 -30 0 -17 9 -39 20 -50 11 -11 20 -25 20 -30 0 -6 7 -22 16
-35 9 -14 14 -32 10 -40 -7 -20 30 -102 62 -137 16 -18 23 -34 19 -48 -10 -39
29 -92 146 -197 26 -24 60 -45 75 -48 15 -3 41 -10 57 -16 59 -22 220 -36 477
-43 55 -1 103 -8 111 -14 16 -14 89 -16 160 -7 45 7 49 5 80 -27 29 -31 68
-57 107 -72 8 -3 22 -11 31 -17 10 -8 32 -9 61 -5 52 8 108 55 108 91 0 13 7
25 15 29 8 3 15 14 15 26 0 13 11 24 33 33 45 20 74 54 59 69 -7 7 -12 22 -12
34 0 25 -58 90 -78 86 -7 -2 -15 4 -18 13 -5 12 -23 15 -80 15 -48 0 -74 -4
-74 -11 0 -6 -9 -9 -19 -6 -12 3 -22 -1 -25 -9 -4 -11 -16 -13 -46 -8 -31 5
-45 3 -59 -10 -17 -16 -20 -16 -35 0 -18 18 -201 33 -429 35 -102 1 -119 3
-130 20 -11 15 -25 18 -76 16 -46 -1 -66 3 -75 14 -6 8 -19 13 -28 11 -10 -2
-18 1 -18 7 0 5 -18 31 -40 58 -61 74 -67 80 -79 84 -7 3 -13 11 -15 19 -1 8
-7 24 -13 35 -6 11 -9 32 -6 46 4 20 -1 30 -21 42 -23 15 -25 21 -19 65 4 37
2 51 -11 61 -10 8 -14 22 -10 36 3 13 1 26 -5 29 -17 11 -13 91 4 106 8 7 15
23 15 35 0 12 7 28 15 35 8 7 15 21 15 31 0 11 4 19 9 19 5 0 12 8 15 18 9 23
31 61 45 75 6 6 11 20 11 31 0 12 9 36 20 54 11 18 20 39 20 47 0 8 6 18 13
22 6 4 19 21 27 37 8 16 21 30 30 33 8 2 23 9 32 14 10 5 30 9 46 9 15 0 32 4
38 8 5 5 28 14 51 22 73 23 268 -8 341 -54 57 -36 123 -40 201 -14 36 12 69
27 73 32 4 6 8 32 8 57 0 49 -2 52 -80 117 -24 20 -52 45 -62 55 -13 12 -34
17 -78 17 -33 0 -60 4 -60 10 0 6 -9 10 -20 10 -11 0 -23 7 -26 15 -4 10 -20
15 -49 15 -26 0 -50 6 -59 16 -24 23 -157 32 -174 11z"/>
<path d="M14785 11170 c-3 -5 -19 -10 -36 -10 -16 0 -29 -4 -29 -10 0 -5 -8
-10 -17 -10 -24 -1 -73 -83 -73 -122 0 -18 11 -45 29 -67 36 -46 51 -75 51
-98 0 -10 13 -34 29 -53 15 -19 38 -57 51 -85 42 -96 72 -160 81 -177 5 -10 9
-29 9 -42 0 -14 5 -28 10 -31 6 -3 10 -13 10 -22 0 -9 10 -27 22 -40 19 -20
20 -27 10 -43 -10 -16 -10 -24 0 -40 7 -11 16 -20 20 -20 5 0 8 -9 8 -19 0
-11 5 -23 10 -26 14 -9 12 -42 -2 -48 -10 -3 -10 -9 0 -26 6 -11 12 -39 12
-60 0 -22 5 -43 10 -46 15 -9 12 -88 -4 -111 -24 -34 -20 -272 5 -299 5 -5 9
-19 9 -32 0 -12 9 -38 20 -58 11 -20 20 -44 20 -54 0 -16 9 -20 58 -23 53 -3
60 -1 100 31 23 20 42 43 42 53 0 10 5 18 10 18 6 0 10 10 10 23 0 13 11 34
25 47 14 13 25 30 25 37 0 8 6 16 14 19 7 3 22 21 32 40 10 19 22 34 26 34 5
0 8 9 8 20 0 12 -7 20 -16 20 -26 0 -114 102 -114 133 0 8 -6 17 -14 20 -11 5
-13 19 -9 61 4 40 2 56 -6 56 -9 0 -10 22 -5 84 6 71 4 87 -9 101 -11 10 -14
25 -11 44 5 24 1 32 -20 46 -14 10 -26 26 -26 36 0 10 -5 21 -11 25 -6 3 -8
16 -5 29 4 14 0 27 -9 35 -11 9 -13 25 -9 65 6 49 5 54 -20 70 -14 10 -26 26
-26 36 0 10 -5 21 -11 25 -6 3 -9 19 -5 34 4 20 1 30 -11 34 -12 5 -14 16 -10
46 3 27 1 43 -9 51 -8 6 -14 20 -14 30 0 10 -5 21 -11 25 -6 3 -8 16 -5 29 4
15 1 25 -9 29 -8 3 -15 14 -15 25 0 11 -4 23 -10 26 -5 3 -10 13 -10 22 0 24
-73 99 -93 95 -10 -2 -17 3 -17 12 0 18 -55 23 -65 6z"/>
<path d="M7050 7809 c0 -5 -18 -9 -40 -9 -22 0 -48 -5 -58 -11 -14 -9 -78 -8
-258 4 -197 13 -241 14 -254 3 -12 -11 -46 -12 -160 -6 -117 6 -150 5 -173 -7
-15 -8 -37 -11 -48 -8 -11 4 -27 1 -36 -6 -8 -8 -29 -12 -45 -10 -16 1 -36 -3
-44 -10 -9 -8 -39 -10 -89 -7 -45 3 -78 1 -82 -5 -4 -6 -56 -8 -144 -3 -92 4
-139 3 -139 -4 0 -6 -33 -10 -85 -9 -51 1 -90 -2 -97 -9 -6 -6 -30 -8 -60 -5
-30 4 -58 1 -71 -6 -18 -10 -28 -9 -52 3 -36 19 -47 20 -63 4 -13 -13 -352
-19 -352 -6 0 3 -48 9 -107 13 -79 6 -108 5 -111 -4 -3 -8 -21 -10 -61 -5 -47
5 -59 3 -64 -9 -5 -13 -20 -14 -86 -10 -54 4 -85 2 -95 -6 -10 -8 -39 -10 -95
-5 -69 6 -84 4 -100 -10 -12 -11 -27 -15 -44 -11 -14 4 -28 2 -31 -4 -4 -6
-39 -11 -83 -11 -71 0 -78 2 -105 30 -32 34 -91 42 -102 15 -4 -12 -14 -14
-41 -9 -27 5 -41 2 -55 -11 -17 -16 -27 -16 -74 -7 -47 10 -59 8 -91 -8 -70
-36 -112 -84 -126 -144 -11 -50 -10 -56 10 -84 11 -17 21 -36 21 -44 0 -7 22
-27 49 -44 44 -28 56 -31 120 -29 63 2 75 5 100 29 38 36 86 49 128 34 26 -9
40 -9 66 0 18 7 50 12 70 12 20 0 52 9 71 21 32 19 45 20 148 14 293 -17 370
-13 499 24 45 13 83 15 180 10 68 -3 140 -2 159 2 19 4 109 4 200 0 146 -6
170 -5 208 11 48 20 119 23 169 9 23 -7 48 -5 85 5 36 10 122 16 273 19 313 6
419 10 432 18 6 4 36 2 66 -3 47 -9 64 -8 116 10 88 29 256 38 310 16 49 -19
90 -20 127 -4 24 11 28 10 54 -22 26 -32 32 -34 86 -35 61 0 137 27 163 59 8
9 21 16 30 16 26 0 62 43 71 86 8 36 6 42 -42 106 -27 37 -55 68 -61 69 -7 1
-29 3 -49 4 -21 2 -38 0 -38 -6z"/>
<path d="M1736 7155 c-4 -11 -23 -13 -83 -9 -43 3 -84 7 -91 9 -7 3 -15 -2
-18 -10 -4 -8 -17 -15 -30 -15 -13 0 -24 -4 -24 -10 0 -5 -9 -10 -20 -10 -11
0 -20 -4 -20 -9 0 -5 -10 -13 -22 -17 -13 -4 -38 -20 -56 -35 -18 -16 -38 -29
-45 -29 -13 0 -167 -163 -167 -177 0 -13 -107 -113 -121 -113 -9 0 -19 -6 -22
-14 -3 -7 -18 -16 -34 -19 -22 -4 -33 -15 -46 -49 -10 -24 -22 -51 -28 -60 -5
-10 -9 -37 -9 -60 0 -24 -7 -56 -15 -72 -8 -15 -15 -34 -15 -42 0 -8 -13 -26
-29 -40 -16 -14 -35 -40 -41 -57 -7 -18 -16 -41 -20 -52 -5 -11 -10 -53 -12
-94 -3 -56 -8 -76 -22 -86 -17 -13 -17 -15 8 -48 14 -19 26 -43 26 -55 0 -11
5 -24 10 -27 13 -8 13 -41 -2 -64 -8 -13 -9 -34 -2 -72 8 -46 12 -54 38 -60
50 -14 101 -57 120 -102 39 -92 47 -107 61 -107 8 0 15 -4 15 -9 0 -6 13 -18
29 -27 16 -10 46 -39 67 -66 32 -42 129 -118 151 -118 4 0 27 -17 52 -38 91
-76 101 -80 197 -88 56 -4 103 -14 126 -26 21 -11 42 -17 47 -14 5 3 20 2 34
-3 33 -13 189 -18 206 -7 8 5 38 10 67 11 28 1 58 6 65 11 8 5 23 10 34 11 48
4 151 22 167 28 9 4 27 -1 41 -10 40 -26 65 -26 96 1 16 13 33 24 37 24 5 0
32 11 59 25 28 13 59 25 69 25 11 0 33 12 48 27 23 22 28 35 28 75 l0 48 -53
0 c-44 0 -58 4 -77 25 -13 14 -29 25 -36 25 -7 0 -14 4 -16 9 -4 13 -198 21
-198 9 0 -6 -38 -8 -88 -7 -69 2 -93 -1 -112 -14 -13 -9 -27 -14 -31 -11 -4 2
-43 6 -85 9 -62 3 -80 1 -89 -12 -14 -18 -87 -10 -105 12 -8 9 -22 12 -41 8
-24 -4 -34 0 -56 23 -20 22 -33 28 -59 25 -41 -3 -94 26 -94 52 0 10 -9 21
-19 24 -11 3 -22 12 -25 20 -4 11 -14 13 -37 8 -25 -6 -31 -3 -36 13 -3 14
-11 18 -24 15 -10 -3 -19 0 -19 6 0 6 -9 11 -19 11 -11 0 -21 8 -23 17 -2 11
-12 18 -27 18 -19 0 -26 8 -36 43 -16 54 -33 73 -59 70 -13 -2 -24 5 -31 18
-6 12 -17 29 -24 38 -7 9 -11 22 -8 31 4 8 0 21 -8 29 -8 8 -15 24 -15 35 0
12 -4 21 -10 21 -12 0 -6 213 7 232 27 43 35 70 40 131 4 65 8 73 54 130 27
34 49 67 49 74 0 7 4 13 9 13 5 0 13 10 17 23 3 12 22 37 40 55 19 18 34 37
34 41 0 14 120 131 135 131 8 0 29 12 47 28 48 39 67 48 133 61 33 7 74 16 90
21 59 18 165 5 225 -26 30 -15 57 -32 58 -36 2 -4 20 -8 40 -8 41 0 52 -6 68
-35 6 -11 27 -28 46 -37 42 -20 68 -70 50 -98 -15 -24 1 -37 55 -46 24 -4 51
-16 64 -30 12 -13 32 -24 44 -24 22 0 58 32 68 63 4 9 11 17 17 17 13 0 13 77
0 85 -5 3 -10 15 -10 26 0 10 -7 19 -15 19 -9 0 -18 7 -21 15 -4 8 -12 15 -20
15 -8 0 -14 5 -14 10 0 6 -7 10 -15 10 -9 0 -18 7 -21 15 -4 8 -11 15 -18 16
-6 0 -33 27 -61 59 -32 37 -58 59 -72 59 -13 1 -23 7 -23 14 -1 26 -49 67 -79
67 -20 0 -35 7 -43 20 -7 11 -17 20 -22 20 -5 0 -17 7 -26 15 -23 20 -266 29
-274 10z"/>
<path d="M8446 7104 c-5 -13 -17 -16 -71 -12 -46 3 -66 0 -69 -9 -4 -9 -18
-11 -49 -7 -36 5 -45 3 -51 -11 -4 -13 -13 -15 -31 -11 -18 5 -27 2 -31 -9 -4
-9 -19 -15 -40 -15 -25 0 -38 -7 -50 -26 -10 -14 -23 -23 -31 -20 -8 3 -30
-10 -51 -31 -20 -21 -45 -36 -54 -35 -10 2 -18 -2 -18 -7 0 -6 -6 -11 -14 -11
-8 0 -28 -11 -44 -25 -17 -14 -36 -25 -44 -25 -8 0 -29 -16 -48 -35 -19 -20
-39 -34 -45 -31 -6 2 -19 -16 -28 -39 -13 -38 -14 -45 -1 -56 8 -6 14 -22 14
-34 0 -12 9 -34 20 -48 15 -19 20 -40 20 -85 0 -34 5 -64 10 -67 6 -3 10 -22
10 -41 0 -19 5 -34 10 -34 16 0 12 -46 -5 -60 -17 -14 -21 -115 -5 -125 6 -3
10 -30 10 -60 0 -30 5 -57 10 -60 16 -10 13 -220 -4 -234 -11 -10 -11 -17 5
-48 11 -21 19 -56 19 -80 0 -34 5 -46 24 -58 21 -14 24 -23 22 -67 -2 -49 14
-100 35 -114 6 -3 9 -31 8 -61 -2 -50 1 -60 29 -94 18 -21 32 -42 32 -46 0 -5
17 -26 38 -46 43 -42 73 -47 149 -21 51 17 72 37 73 68 0 11 7 27 16 37 9 10
18 38 20 63 3 38 -1 50 -21 72 -14 15 -25 35 -25 45 0 10 -4 21 -10 24 -5 3
-10 40 -10 81 0 72 -1 74 -25 74 -27 0 -35 27 -11 36 17 6 28 42 16 49 -13 8
-40 66 -40 86 0 10 -4 21 -10 24 -18 11 -11 70 10 88 17 14 38 17 115 15 63
-1 99 2 107 10 7 7 19 12 28 12 24 0 60 42 60 71 0 51 109 117 174 105 24 -5
37 -2 46 9 7 8 21 15 31 15 10 0 23 9 29 20 6 11 19 20 30 20 10 0 22 5 25 10
3 6 22 10 41 10 19 0 42 4 52 8 9 5 32 16 50 25 18 9 39 14 47 11 8 -4 15 -1
15 5 0 6 6 11 14 11 8 0 29 8 48 17 60 30 68 33 83 33 8 0 20 9 27 20 7 11 20
20 29 20 8 0 27 12 41 28 61 66 72 107 42 150 -11 16 -14 34 -10 57 5 24 1 43
-13 67 -11 18 -27 47 -35 63 -8 17 -35 52 -61 80 -26 27 -42 51 -36 53 18 6
13 30 -9 42 -11 6 -20 17 -20 24 0 9 -14 11 -55 8 -45 -4 -56 -1 -61 13 -4 10
-1 21 7 27 12 7 11 11 -5 21 -11 7 -28 20 -39 30 -15 15 -28 18 -63 12 -35 -5
-45 -3 -50 9 -7 18 -74 23 -74 6 0 -5 -7 -10 -15 -10 -8 0 -15 7 -15 15 0 12
-18 15 -104 15 -57 0 -111 3 -119 6 -8 3 -17 -2 -21 -12z m149 -243 c12 -21
70 -41 116 -41 35 0 55 -6 76 -23 15 -13 39 -27 53 -31 35 -9 54 -26 73 -65
31 -63 24 -91 -43 -154 -33 -31 -66 -57 -73 -57 -7 0 -24 -12 -38 -26 -15 -16
-31 -23 -42 -20 -11 3 -28 1 -38 -5 -11 -5 -28 -13 -39 -19 -11 -5 -28 -10
-39 -10 -10 0 -31 -6 -46 -14 -15 -8 -34 -12 -41 -9 -8 3 -17 -2 -20 -11 -3
-9 -14 -16 -23 -16 -9 0 -24 -7 -34 -15 -11 -7 -25 -11 -33 -8 -8 3 -22 -2
-32 -10 -14 -13 -25 -14 -66 -5 -42 9 -50 8 -58 -7 -7 -11 -20 -15 -43 -14
-18 2 -39 -2 -46 -8 -8 -6 -34 -11 -59 -10 l-45 2 4 79 c2 58 0 81 -10 87 -20
12 -13 146 10 182 29 46 143 157 161 157 9 0 25 9 35 20 12 13 31 20 56 20 21
0 41 5 44 10 3 6 23 10 43 10 20 0 44 5 52 10 19 12 137 13 145 1z"/>
<path d="M17344 7109 c-3 -5 -14 -9 -25 -9 -11 0 -22 -7 -25 -15 -4 -8 -15
-15 -25 -15 -10 0 -34 -16 -54 -36 -20 -19 -41 -34 -47 -32 -14 5 -68 -40 -68
-57 0 -6 -14 -24 -31 -41 -17 -16 -39 -47 -49 -69 -10 -22 -28 -49 -39 -59
-12 -11 -21 -25 -21 -31 0 -7 -7 -18 -15 -25 -10 -8 -15 -30 -15 -61 0 -26 -4
-51 -10 -54 -12 -7 -36 -61 -44 -97 -4 -16 -11 -28 -16 -28 -23 0 -11 -36 70
-200 4 -8 20 -16 36 -18 16 -2 39 -14 50 -28 12 -13 32 -24 46 -24 14 0 31 -7
38 -15 7 -8 22 -15 34 -16 11 0 35 -9 51 -20 17 -10 51 -29 78 -41 26 -12 47
-25 47 -30 0 -4 9 -8 20 -8 11 0 20 -4 20 -10 0 -5 11 -10 24 -10 14 0 38 -11
54 -25 17 -14 35 -25 41 -25 7 0 15 -8 19 -18 8 -21 75 -82 89 -82 6 0 18 -10
29 -21 10 -12 29 -25 42 -30 16 -6 22 -17 22 -39 0 -16 5 -30 10 -30 6 0 10
-26 10 -59 0 -58 -1 -59 -51 -105 -28 -25 -56 -46 -63 -46 -7 0 -25 -13 -41
-30 -16 -16 -37 -30 -47 -30 -10 0 -18 -5 -18 -10 0 -7 -45 -9 -125 -8 -97 2
-125 6 -125 17 0 9 -8 11 -25 7 -18 -5 -27 -2 -31 9 -4 8 -14 15 -25 15 -10 0
-22 6 -26 13 -4 6 -21 20 -38 29 -17 9 -32 27 -33 40 -5 28 -20 49 -36 47 -25
-3 -36 2 -36 16 0 12 -17 15 -94 15 -53 0 -98 -4 -101 -10 -3 -5 -14 -10 -23
-10 -9 0 -29 -12 -44 -27 -26 -25 -28 -32 -28 -109 l0 -82 43 -37 c44 -38 50
-39 143 -20 21 5 34 2 43 -9 8 -9 24 -16 36 -16 13 0 32 -10 42 -22 21 -27 57
-46 93 -50 19 -2 26 -10 28 -31 3 -22 7 -27 23 -22 12 4 21 1 25 -9 3 -9 14
-16 24 -16 10 0 22 -9 25 -20 5 -16 10 -18 25 -10 10 6 34 10 52 10 18 0 53 7
77 15 24 9 64 18 90 22 25 3 53 11 61 17 35 26 80 46 104 46 15 0 31 8 38 20
7 11 20 20 29 20 9 0 22 7 29 15 7 8 21 15 31 15 10 0 21 5 24 10 3 6 15 10
26 10 10 0 19 5 19 10 0 6 11 10 23 10 13 0 32 9 42 20 10 11 24 20 31 20 16
0 64 61 64 82 0 9 7 21 15 28 8 7 15 19 15 26 0 8 4 14 9 14 17 0 22 33 7 49
-11 12 -13 35 -10 92 3 67 1 78 -17 95 -27 24 -49 67 -49 94 0 11 -4 20 -10
20 -5 0 -10 11 -10 25 0 20 -5 25 -25 25 -16 0 -25 6 -25 16 0 10 -6 14 -17
10 -12 -3 -27 8 -48 34 -20 27 -36 38 -48 36 -25 -6 -47 3 -47 19 0 8 -7 11
-18 9 -12 -4 -27 8 -47 35 -19 26 -36 39 -46 36 -9 -3 -21 4 -29 20 -7 14 -21
25 -31 25 -10 0 -23 9 -29 19 -6 13 -17 17 -30 14 -14 -4 -20 0 -20 12 0 13
-6 15 -29 10 -25 -5 -32 -2 -47 25 -16 26 -23 30 -46 24 -20 -4 -30 -1 -34 10
-3 9 -17 16 -30 16 -19 0 -24 5 -24 25 0 14 -6 25 -13 25 -18 0 -97 69 -97 85
0 7 7 18 15 25 8 7 15 21 15 31 0 24 16 54 53 97 15 18 27 39 27 47 0 8 4 15
8 15 5 0 22 13 38 30 16 16 34 30 40 30 6 0 17 7 24 15 7 8 21 15 31 15 9 0
25 7 33 16 23 22 86 31 100 13 17 -21 53 -39 80 -39 14 0 30 -10 40 -25 9 -14
23 -25 31 -25 9 0 19 -10 24 -23 5 -12 32 -34 62 -50 47 -24 54 -25 69 -12 9
8 23 15 31 15 18 1 97 75 110 103 5 12 14 30 21 39 10 13 8 24 -7 52 -11 20
-26 36 -33 36 -8 0 -23 11 -34 25 -13 17 -29 25 -49 25 -16 0 -41 7 -54 16
-14 9 -35 14 -47 11 -19 -5 -79 15 -130 43 -10 6 -29 10 -43 10 -14 0 -28 6
-30 13 -3 7 -25 13 -52 14 -26 1 -52 8 -58 15 -11 15 -102 20 -111 7z"/>
<path d="M15874 7013 c-8 -13 -24 -14 -114 -5 -88 9 -107 8 -116 -4 -6 -8 -22
-14 -36 -14 -14 0 -37 -14 -57 -34 -28 -29 -39 -34 -62 -29 -38 7 -87 -17
-144 -72 -36 -35 -51 -44 -69 -39 -15 3 -25 1 -29 -9 -3 -8 -23 -18 -44 -22
-21 -4 -43 -11 -50 -17 -6 -5 -56 -10 -110 -10 -70 -1 -102 -5 -112 -15 -8 -8
-22 -12 -33 -10 -11 3 -29 -4 -45 -19 -14 -13 -31 -24 -38 -24 -20 0 -33 -22
-36 -66 -4 -39 -2 -43 49 -83 29 -23 55 -50 58 -59 3 -9 10 -25 15 -35 7 -12
8 -85 3 -196 -5 -129 -4 -180 5 -185 6 -4 11 -14 11 -23 0 -9 10 -27 22 -40
20 -21 22 -33 19 -104 -2 -66 1 -86 19 -116 19 -33 20 -48 18 -227 -2 -200 1
-234 33 -303 23 -53 50 -68 114 -65 28 1 56 -2 64 -7 13 -8 21 -6 101 35 13 7
32 27 42 45 10 18 24 39 32 47 13 13 12 17 -9 34 -13 10 -28 18 -33 18 -5 0
-12 7 -16 15 -3 8 -15 15 -27 15 -22 0 -22 1 -15 124 5 109 4 126 -10 134 -9
5 -14 18 -12 33 2 13 -2 29 -9 34 -10 8 -11 44 -5 153 5 110 4 146 -5 154 -7
6 -13 21 -13 35 0 13 -7 31 -15 39 -8 9 -13 27 -10 47 2 17 7 58 11 91 6 49 4
60 -9 68 -10 5 -17 18 -17 28 0 10 -4 22 -10 25 -5 3 -10 20 -10 37 0 40 62
102 94 94 16 -3 39 12 92 62 39 37 75 77 78 90 4 12 12 22 17 22 5 0 32 11 61
25 28 14 60 25 69 25 10 0 20 4 23 9 6 9 91 21 187 26 31 1 66 8 77 14 29 16
85 14 108 -4 10 -8 36 -15 56 -15 20 0 43 -6 51 -14 8 -8 32 -16 53 -18 l39
-3 3 -59 c3 -56 1 -60 -30 -87 -18 -15 -38 -28 -44 -29 -22 0 -92 -40 -97 -55
-4 -8 -16 -15 -27 -15 -11 0 -20 -6 -20 -14 0 -15 -52 -46 -76 -46 -7 0 -17
-7 -22 -17 -6 -9 -16 -14 -25 -10 -9 3 -18 -1 -21 -10 -5 -11 -14 -14 -35 -10
-21 4 -31 2 -35 -9 -5 -12 -15 -14 -50 -9 -32 5 -44 3 -49 -7 -4 -11 -23 -14
-89 -11 l-83 4 -52 -50 c-53 -50 -53 -51 -53 -111 0 -33 4 -60 10 -60 6 0 10
-7 10 -15 0 -8 4 -23 9 -33 27 -53 56 -117 56 -124 0 -14 187 -208 201 -208
15 0 75 -70 68 -81 -2 -4 15 -17 38 -28 48 -22 80 -52 77 -73 -4 -32 2 -38 39
-38 37 0 72 -25 72 -51 0 -6 25 -39 55 -72 30 -34 55 -66 55 -70 0 -16 85
-108 118 -127 38 -23 86 -25 146 -8 44 12 86 44 86 64 0 7 7 17 16 22 11 6 13
11 5 16 -6 4 -11 14 -11 22 0 9 -7 22 -15 30 -9 10 -13 25 -9 39 3 12 1 26 -5
29 -6 4 -11 16 -11 26 0 11 -8 32 -17 47 -16 25 -23 28 -70 26 -40 -1 -53 2
-53 13 0 10 -7 13 -25 8 -19 -5 -25 -2 -25 11 0 28 -79 114 -109 117 -16 2
-26 9 -26 20 0 9 -10 27 -23 40 -12 14 -22 30 -22 37 0 17 -41 50 -62 51 -10
0 -20 10 -23 23 -4 12 -21 29 -38 37 -25 12 -33 23 -40 57 -7 35 -12 42 -35
45 -23 3 -28 9 -35 52 -6 38 -5 52 8 66 8 9 15 22 15 28 0 7 8 12 18 12 10 0
29 11 42 25 13 14 29 25 36 25 10 0 44 15 116 51 10 5 27 9 38 9 10 0 36 10
57 21 21 12 50 22 65 23 28 2 98 60 98 81 0 21 75 75 103 75 20 0 95 82 102
112 4 15 20 38 36 50 25 20 29 30 29 76 0 28 -4 52 -10 52 -5 0 -10 9 -10 19
0 10 -7 21 -15 25 -8 3 -15 14 -15 25 0 11 -4 22 -9 25 -4 3 -11 19 -14 36 -4
19 -16 34 -32 42 -14 6 -25 17 -25 25 0 9 -15 13 -50 13 -36 0 -50 4 -50 14 0
9 -7 12 -20 9 -14 -4 -20 0 -20 11 0 12 -10 16 -40 16 -27 0 -43 5 -46 15 -4
10 -14 13 -32 8 -18 -4 -29 -1 -39 12 -11 16 -29 19 -121 21 -87 1 -110 -1
-118 -13z"/>
<path d="M6655 7003 c-2 -7 -17 -13 -33 -13 -18 0 -38 -10 -53 -26 -22 -23
-24 -34 -25 -122 -1 -104 -19 -158 -64 -189 -22 -16 -60 -87 -60 -114 0 -9 -7
-22 -15 -29 -8 -7 -15 -18 -15 -25 0 -6 -8 -20 -19 -29 -10 -9 -21 -31 -25
-48 -3 -16 -17 -39 -31 -50 -14 -11 -25 -27 -25 -36 0 -10 -9 -23 -20 -30 -11
-7 -20 -18 -20 -25 0 -8 -18 -30 -40 -50 -22 -19 -40 -44 -40 -54 0 -16 -18
-30 -86 -68 -11 -7 -36 -15 -55 -19 -30 -5 -36 -2 -54 24 -11 16 -23 30 -27
30 -5 0 -8 8 -8 18 0 10 -16 33 -35 52 -19 19 -35 41 -35 49 -1 29 -26 51 -59
51 -24 0 -31 4 -31 20 0 11 -6 20 -14 20 -7 0 -34 23 -60 50 -26 28 -51 50
-57 50 -5 0 -23 16 -40 35 -17 19 -37 35 -44 35 -7 0 -49 38 -93 85 -69 74
-86 86 -117 89 -21 2 -41 9 -46 17 -6 11 -12 10 -28 -5 -11 -10 -25 -15 -30
-11 -6 3 -28 -10 -49 -29 -20 -20 -44 -36 -53 -36 -27 0 -49 -35 -58 -91 -6
-37 -5 -61 3 -77 8 -15 10 -48 5 -104 -4 -44 -5 -87 -2 -94 5 -14 -21 -66 -51
-102 -11 -12 -25 -39 -32 -59 -12 -34 -11 -40 6 -58 12 -13 20 -35 20 -56 -1
-44 -23 -126 -38 -141 -7 -7 -12 -20 -12 -29 0 -10 -5 -19 -12 -21 -7 -3 -13
-31 -15 -68 -2 -36 -11 -78 -20 -95 -9 -16 -25 -47 -36 -67 -10 -21 -23 -38
-27 -38 -9 0 -70 -120 -70 -139 0 -7 8 -25 18 -39 10 -15 22 -35 25 -44 9 -25
86 -63 100 -49 6 6 21 11 33 11 13 0 26 5 29 10 3 6 14 10 24 10 19 0 81 79
81 103 0 9 11 29 25 45 21 25 25 40 25 96 0 50 4 68 15 72 11 5 15 21 15 59 0
30 5 57 10 60 6 3 10 19 10 34 0 16 9 40 20 54 11 14 20 30 20 36 0 6 9 26 20
46 11 20 20 42 20 50 0 8 7 15 15 15 23 0 18 16 -10 28 -28 13 -33 37 -9 46 9
3 14 13 10 21 -3 8 1 21 9 29 10 9 15 35 15 74 0 48 4 62 23 80 34 32 49 28
103 -28 38 -38 56 -50 81 -50 21 0 45 -12 73 -35 23 -19 46 -35 51 -35 5 0 9
-6 9 -14 0 -16 17 -50 46 -91 12 -17 27 -47 35 -69 8 -21 24 -46 36 -56 26
-20 30 -56 8 -86 -17 -26 -11 -34 26 -34 35 0 62 -26 55 -53 -10 -38 11 -47
105 -47 53 0 91 4 95 11 3 6 19 16 34 22 36 16 100 73 100 90 0 8 10 22 21 33
12 10 25 28 30 39 5 11 18 35 29 53 11 18 18 37 15 41 -2 5 2 17 10 27 8 10
15 27 15 37 0 10 7 20 15 23 8 4 15 16 15 28 0 12 14 35 31 52 17 16 35 38 40
49 15 33 32 57 82 115 26 30 60 80 75 112 15 32 30 58 34 58 5 0 8 6 8 13 0 8
11 24 25 37 14 13 25 31 25 40 0 19 56 54 76 46 7 -3 14 -14 14 -25 0 -11 5
-23 10 -26 6 -3 10 -17 10 -31 0 -13 5 -33 10 -44 6 -11 15 -29 20 -40 6 -11
10 -28 10 -38 0 -10 11 -29 26 -42 25 -24 25 -26 18 -126 -5 -71 -3 -103 5
-108 6 -4 11 -18 11 -30 0 -13 7 -29 15 -36 9 -7 13 -21 9 -34 -3 -15 3 -29
20 -46 16 -14 26 -34 26 -51 0 -15 5 -31 10 -34 6 -3 10 -28 10 -56 0 -27 5
-58 12 -69 10 -15 10 -28 0 -62 -24 -81 -30 -123 -26 -193 5 -112 14 -143 43
-165 94 -69 111 -86 111 -108 0 -24 34 -44 58 -35 7 3 18 1 25 -4 8 -7 22 -6
42 2 56 24 64 42 71 156 4 57 12 107 18 111 6 4 12 33 12 64 2 50 0 55 -17 51
-27 -7 -49 34 -49 92 0 27 -4 52 -9 55 -4 3 -7 71 -5 151 2 88 -1 145 -6 145
-16 0 -12 36 5 50 8 7 15 18 15 25 0 7 -7 15 -15 19 -8 3 -15 12 -15 19 0 10
-8 13 -25 9 -24 -4 -25 -2 -25 46 0 38 5 54 18 62 12 8 14 13 4 16 -23 10 -43
36 -38 50 3 7 1 16 -4 19 -6 4 -10 18 -10 33 0 16 -8 32 -19 39 -28 17 -54 78
-47 107 4 16 1 26 -10 30 -10 4 -14 16 -12 33 2 22 -6 35 -35 62 -35 32 -37
36 -33 82 4 40 1 52 -20 75 -23 23 -25 34 -23 96 l2 70 -41 19 c-23 11 -42 23
-42 27 -1 31 -223 64 -235 35z"/>
<path d="M12786 6875 c-4 -10 -15 -15 -30 -13 -13 1 -31 -3 -40 -11 -9 -7 -25
-11 -36 -8 -10 3 -24 -1 -30 -8 -9 -10 -36 -12 -119 -8 -76 4 -110 2 -115 -6
-4 -6 -16 -11 -27 -11 -11 0 -22 -6 -25 -14 -4 -11 -17 -13 -55 -9 -38 5 -54
2 -68 -11 -20 -19 -23 -19 -285 0 -76 5 -100 4 -106 -6 -6 -10 -26 -13 -65
-11 -42 2 -62 -2 -75 -14 -12 -11 -26 -14 -41 -10 -13 5 -24 2 -30 -6 -6 -10
-30 -13 -87 -10 -50 2 -82 -1 -86 -8 -11 -18 -135 -14 -142 4 -8 19 -73 16
-95 -5 -9 -8 -35 -26 -57 -39 -37 -22 -40 -28 -50 -85 -11 -67 1 -96 40 -96
11 0 22 -8 25 -18 13 -51 161 -72 243 -34 25 11 63 26 85 32 22 6 59 20 82 31
24 10 60 19 81 19 53 0 72 -23 72 -88 0 -28 5 -54 10 -57 6 -3 10 -32 10 -64
0 -33 7 -72 16 -90 10 -21 18 -71 22 -137 3 -58 9 -107 13 -110 5 -3 9 -15 9
-27 0 -12 9 -28 19 -34 16 -10 20 -28 25 -90 2 -43 10 -123 17 -178 14 -118
14 -133 4 -246 l-7 -85 33 -36 c19 -19 42 -38 51 -41 23 -8 35 -56 18 -67 -24
-15 1 -72 43 -99 20 -13 37 -30 37 -37 0 -20 52 -21 92 -1 21 11 49 33 63 50
14 18 29 37 33 42 16 20 21 72 9 91 -23 34 -35 88 -33 137 1 26 -1 50 -5 53
-16 10 -39 68 -39 100 0 18 -4 36 -10 39 -5 3 -10 16 -10 27 0 12 -11 36 -25
54 -31 41 -33 93 -5 119 23 21 26 67 5 85 -11 9 -13 30 -10 96 5 83 4 86 -22
109 -28 23 -28 24 -8 39 11 8 14 16 8 16 -22 0 -40 52 -35 98 3 34 -1 51 -17
73 -18 24 -20 35 -13 67 7 29 5 44 -5 58 -25 33 -11 98 28 133 31 29 39 31
109 31 41 0 111 7 155 16 44 9 134 17 200 19 66 1 143 6 171 10 38 5 59 3 82
-9 34 -18 137 -22 147 -6 3 6 14 10 23 10 19 0 72 48 72 66 0 7 8 17 17 23 17
9 17 10 0 28 -9 11 -17 29 -17 41 0 30 -48 82 -76 82 -12 0 -33 13 -46 28 -18
22 -33 29 -69 30 -35 2 -48 -1 -53 -13z"/>
<path d="M10448 6823 c-27 -13 -48 -30 -48 -37 0 -7 -9 -21 -20 -31 -12 -11
-28 -34 -37 -52 -14 -30 -14 -35 2 -59 9 -14 29 -30 45 -35 60 -22 114 -195
80 -259 -20 -37 -7 -140 23 -186 9 -15 -3 -103 -14 -110 -12 -7 -11 -101 1
-109 16 -10 12 -95 -5 -101 -8 -4 -15 -11 -15 -18 0 -6 -11 -24 -25 -40 -14
-16 -25 -35 -25 -43 0 -7 -4 -13 -10 -13 -5 0 -10 -12 -10 -27 0 -31 -66 -99
-112 -115 -16 -6 -33 -19 -39 -30 -7 -12 -17 -17 -28 -13 -12 3 -21 0 -24 -10
-4 -8 -13 -12 -21 -9 -9 3 -23 -2 -33 -11 -22 -23 -111 -13 -133 15 -8 11 -31
23 -50 26 -19 4 -40 10 -45 15 -6 4 -30 11 -52 15 -56 9 -103 56 -85 84 18 29
15 48 -8 55 -13 4 -20 15 -20 30 0 15 -10 31 -25 41 -24 16 -25 18 -9 36 17
18 16 18 -7 16 -18 -2 -24 1 -22 16 1 11 -6 25 -14 31 -14 10 -15 26 -10 98 5
58 3 88 -4 93 -6 3 -9 23 -7 44 3 30 -2 41 -24 60 -32 27 -35 42 -13 60 12 10
13 16 4 26 -7 9 -10 36 -7 69 3 35 1 59 -6 63 -6 4 -17 19 -23 34 -9 19 -17
26 -28 22 -9 -4 -23 0 -33 9 -18 16 -102 21 -102 6 0 -5 -9 -9 -20 -9 -11 0
-28 -8 -38 -17 -10 -10 -40 -37 -65 -61 -46 -42 -58 -62 -37 -62 6 0 10 -24
10 -53 0 -29 4 -57 9 -63 23 -24 61 -106 61 -132 0 -16 10 -41 21 -56 18 -23
21 -37 17 -86 -3 -43 -1 -61 9 -64 7 -3 13 -14 13 -25 0 -11 5 -23 10 -26 6
-3 10 -15 10 -26 0 -10 5 -19 10 -19 6 0 10 -22 10 -50 0 -43 3 -50 20 -50 24
0 35 -36 26 -84 -5 -28 -3 -36 17 -49 16 -10 26 -29 30 -55 5 -25 19 -51 42
-75 19 -20 35 -40 35 -45 0 -14 90 -72 113 -72 12 0 36 -9 52 -20 17 -11 42
-20 56 -20 16 0 33 -10 47 -30 20 -26 29 -30 71 -30 31 0 53 -5 61 -15 27 -33
170 -3 170 35 0 5 9 10 19 10 10 0 21 7 25 15 3 9 19 15 41 15 19 0 56 6 81
12 39 11 51 21 79 63 36 56 60 83 159 173 68 62 96 100 96 128 0 8 7 17 15 20
8 4 15 17 15 30 0 14 7 27 15 30 11 4 15 21 15 58 0 29 4 56 10 62 5 5 12 60
16 122 6 89 4 112 -6 112 -10 0 -12 20 -7 91 5 71 3 91 -8 95 -10 4 -12 31 -9
126 3 71 0 125 -6 132 -5 7 -9 34 -8 60 0 35 -5 53 -21 70 -25 27 -27 63 -4
88 14 16 15 22 5 36 -7 9 -17 29 -23 43 -12 30 -42 40 -123 38 -33 -1 -68 -10
-98 -26z"/>
<path d="M14141 6826 c-11 -12 -32 -14 -132 -9 -105 5 -121 4 -138 -11 -11
-10 -25 -15 -31 -11 -7 4 -15 3 -19 -3 -8 -14 -32 -14 -190 -6 -111 6 -125 5
-133 -10 -7 -12 -17 -16 -33 -12 -14 4 -27 0 -35 -9 -16 -19 -39 -19 -46 0 -8
19 -30 19 -37 1 -4 -9 -14 -12 -26 -9 -12 3 -21 1 -21 -6 0 -6 -8 -11 -18 -11
-17 0 -52 -59 -52 -87 0 -5 -11 -22 -25 -37 -14 -15 -25 -36 -25 -47 0 -10 -4
-19 -10 -19 -5 0 -10 -17 -10 -37 0 -21 -7 -51 -15 -67 -8 -15 -15 -39 -15
-51 0 -13 -5 -25 -12 -27 -6 -2 -13 -26 -14 -52 -2 -26 -7 -53 -12 -59 -23
-28 -32 -250 -11 -271 5 -6 9 -33 9 -61 0 -39 5 -56 20 -70 11 -10 20 -24 20
-31 0 -7 9 -29 20 -49 11 -20 20 -42 20 -49 0 -7 7 -19 15 -26 9 -8 15 -29 15
-56 0 -23 5 -46 11 -50 7 -4 9 -24 6 -55 -5 -44 -4 -49 14 -49 11 0 24 -10 30
-22 14 -33 58 -92 75 -101 10 -5 13 -16 8 -29 -4 -15 2 -28 26 -49 17 -16 38
-29 46 -29 7 0 42 -13 76 -29 74 -35 136 -52 175 -50 15 1 57 -7 93 -19 52
-16 104 -22 255 -27 122 -4 198 -11 215 -20 14 -7 41 -15 61 -19 66 -12 156
56 158 119 1 12 6 26 12 32 5 5 13 35 16 66 6 61 -7 87 -46 87 -11 0 -29 9
-39 20 -15 17 -24 19 -45 11 -14 -5 -32 -20 -40 -31 -9 -13 -20 -19 -27 -15
-6 4 -18 -1 -26 -11 -13 -18 -15 -18 -28 -1 -16 21 -30 22 -46 2 -10 -12 -22
-14 -44 -9 -17 4 -95 8 -174 8 -127 1 -145 3 -153 19 -7 12 -17 16 -30 12 -15
-5 -22 -1 -26 14 -6 23 -18 27 -28 11 -4 -7 -13 -6 -26 1 -11 6 -27 8 -35 5
-7 -3 -17 1 -21 8 -5 8 -17 15 -28 18 -12 2 -20 12 -21 23 -2 39 -4 45 -17 45
-8 0 -24 11 -37 25 -13 14 -20 25 -16 25 3 0 -1 14 -9 30 -9 17 -13 34 -11 39
3 5 -1 14 -9 21 -8 7 -15 18 -15 26 0 7 -9 18 -20 24 -16 8 -20 21 -20 59 0
67 30 101 88 101 23 0 42 5 42 10 0 6 9 10 19 10 11 0 23 5 26 10 10 16 111
12 125 -5 7 -8 25 -15 41 -15 16 0 38 -5 49 -12 15 -10 26 -10 53 0 18 7 54
12 79 12 52 0 60 8 103 92 28 55 28 58 11 77 -10 11 -24 17 -32 14 -14 -5 -54
27 -54 43 0 3 -14 19 -31 35 -26 25 -39 29 -85 29 -39 0 -56 -4 -60 -15 -5
-12 -20 -13 -81 -8 -50 4 -77 2 -82 -5 -3 -6 -27 -11 -51 -12 -83 -2 -261 13
-266 22 -3 5 1 20 10 33 9 13 16 33 16 44 0 11 7 26 15 35 8 8 15 23 15 34 0
11 7 25 15 32 8 7 15 21 15 31 0 10 5 21 10 24 6 3 10 14 10 24 0 30 82 111
113 111 14 0 29 5 32 10 3 6 21 10 38 10 18 0 56 9 85 20 43 17 76 20 196 20
115 0 148 -3 160 -15 8 -8 25 -15 38 -15 13 0 33 -7 45 -15 19 -14 27 -14 69
1 26 9 72 37 101 62 51 44 53 48 53 97 0 54 -19 85 -52 85 -9 0 -19 7 -22 16
-3 9 -13 14 -21 10 -8 -3 -18 1 -22 8 -13 22 -96 31 -112 12z"/>
<path d="M3446 6765 c-3 -8 -12 -12 -20 -9 -8 3 -17 1 -21 -5 -3 -6 -14 -11
-25 -11 -10 0 -20 -7 -24 -15 -3 -8 -15 -15 -26 -15 -11 0 -20 -5 -20 -11 0
-7 -10 -9 -25 -7 -17 4 -25 1 -25 -8 0 -9 -12 -14 -35 -14 -19 0 -35 -4 -35
-10 0 -5 -11 -10 -25 -10 -14 0 -25 -4 -25 -10 0 -5 -9 -10 -20 -10 -25 0
-120 -95 -120 -120 0 -11 -4 -20 -10 -20 -5 0 -10 -8 -10 -18 0 -10 -7 -27
-15 -38 -8 -10 -15 -34 -15 -52 0 -18 -10 -49 -23 -70 -13 -20 -27 -44 -30
-52 -4 -8 -16 -28 -26 -45 -11 -16 -20 -37 -20 -46 -1 -9 -8 -22 -16 -29 -8
-7 -13 -16 -10 -20 9 -14 -17 -70 -36 -81 -10 -5 -19 -20 -19 -33 0 -25 -25
-82 -41 -91 -12 -8 -12 -112 1 -120 6 -3 10 -31 10 -62 0 -42 7 -67 30 -110
17 -30 30 -60 30 -67 0 -26 31 -75 44 -70 8 3 23 -10 36 -31 21 -34 24 -36 65
-30 41 7 43 5 82 -41 42 -48 92 -74 148 -74 17 0 39 -6 50 -13 27 -18 89 -35
155 -42 66 -7 123 -21 170 -43 41 -18 185 -24 215 -9 10 5 26 11 35 11 8 1 33
11 55 23 22 11 60 26 85 33 58 15 100 33 100 42 0 5 7 8 15 8 8 0 23 4 33 9 9
6 36 18 60 27 23 10 42 21 42 24 0 3 21 12 46 19 33 10 55 26 82 59 20 25 47
55 60 67 12 12 22 29 22 38 0 8 7 17 15 21 8 3 15 14 15 25 0 11 4 23 10 26 5
3 17 23 27 43 9 20 26 52 37 70 10 19 21 53 23 78 2 29 12 53 28 70 19 20 25
38 25 70 0 23 5 46 10 49 14 9 -7 34 -37 46 -13 5 -23 15 -23 23 0 7 -9 16
-20 19 -12 3 -20 14 -20 25 0 12 -4 24 -10 27 -5 3 -10 13 -10 21 0 9 -7 22
-15 30 -8 9 -15 24 -15 34 0 13 -5 17 -15 14 -10 -4 -24 5 -38 22 -12 16 -30
35 -39 43 -10 9 -18 23 -18 33 0 9 -4 20 -10 23 -5 3 -10 17 -10 30 0 19 -4
23 -16 18 -10 -4 -22 1 -30 11 -7 10 -18 15 -23 11 -6 -3 -14 2 -17 12 -17 52
-27 63 -61 63 -37 0 -103 44 -103 69 0 8 -6 11 -16 7 -11 -4 -32 7 -59 29 -24
19 -47 35 -52 35 -5 0 -20 12 -34 26 -43 46 -128 74 -149 49 -16 -20 -74 -19
-94 1 -9 8 -21 12 -27 9 -6 -4 -19 2 -30 14 -16 17 -32 21 -83 21 -47 0 -65
-4 -70 -15z m347 -320 c22 -19 48 -35 58 -35 9 0 22 -7 29 -15 7 -8 21 -15 31
-15 11 0 19 -4 19 -10 0 -5 19 -18 43 -29 25 -12 49 -32 61 -53 22 -38 125
-148 141 -148 17 -1 55 -37 55 -54 0 -20 39 -104 51 -112 16 -9 11 -140 -6
-154 -8 -7 -15 -20 -15 -30 0 -10 -11 -25 -25 -34 -14 -9 -25 -22 -25 -28 0
-18 -51 -68 -69 -68 -9 0 -39 -22 -66 -49 -47 -47 -52 -49 -91 -44 -33 4 -42
2 -48 -12 -4 -12 -13 -15 -30 -11 -16 4 -26 1 -30 -9 -3 -8 -14 -15 -25 -15
-10 0 -22 -7 -25 -16 -4 -10 -13 -13 -25 -9 -11 3 -21 0 -24 -8 -4 -10 -19
-11 -77 -3 -65 9 -74 8 -85 -8 -20 -27 -78 -18 -85 13 -5 23 -10 25 -88 27
-51 1 -89 8 -99 16 -9 7 -26 11 -39 10 -14 -2 -26 3 -30 11 -3 9 -13 13 -25
10 -10 -3 -19 -1 -19 5 0 6 -12 17 -27 24 -15 7 -32 23 -38 35 -14 28 -58 63
-79 63 -9 0 -16 7 -16 16 0 10 -6 13 -19 9 -13 -4 -23 2 -35 19 -22 35 -20 68
6 90 20 17 20 20 5 31 -23 17 -24 123 -2 131 8 4 15 16 15 29 0 22 14 52 50
110 10 17 19 36 19 44 1 22 34 91 43 91 4 0 8 9 8 19 0 10 7 22 16 25 10 4 13
13 9 25 -8 26 45 86 94 107 20 9 44 20 53 25 29 15 51 10 80 -18 24 -23 35
-26 79 -24 28 1 67 11 85 22 19 10 51 19 72 19 20 0 44 5 52 10 27 17 51 11
93 -25z"/>
</g>
</svg>
